<svg width="40" height="40" viewBox="0 0 40 40" fill="none" xmlns="http://www.w3.org/2000/svg">
<path d="M14.8111 35.5557C16.1918 35.5557 17.3111 34.4364 17.3111 33.0557C17.3111 31.675 16.1918 30.5557 14.8111 30.5557C13.4304 30.5557 12.3111 31.675 12.3111 33.0557C12.3111 34.4364 13.4304 35.5557 14.8111 35.5557Z" fill="white"/>
<path d="M30 35.5557C31.3807 35.5557 32.5 34.4364 32.5 33.0557C32.5 31.675 31.3807 30.5557 30 30.5557C28.6193 30.5557 27.5 31.675 27.5 33.0557C27.5 34.4364 28.6193 35.5557 30 35.5557Z" fill="white"/>
<path d="M36.7556 5.9666C36.6522 5.83914 36.5218 5.73617 36.3739 5.66508C36.226 5.594 36.0641 5.55657 35.9 5.55549H12.7667L13.4889 7.77771H34.4445L31.4778 21.111H14.8111L9.73334 5.03326C9.67841 4.86266 9.58303 4.70788 9.45534 4.58212C9.32764 4.45636 9.17142 4.36336 9 4.31104L4.44444 2.91104C4.30437 2.868 4.15718 2.85297 4.0113 2.8668C3.86541 2.88064 3.72368 2.92308 3.59419 2.99169C3.33268 3.13026 3.13693 3.36703 3.05 3.64993C2.96307 3.93283 2.99208 4.23867 3.13065 4.50018C3.26921 4.76169 3.50599 4.95744 3.78889 5.04438L7.77778 6.2666L12.8778 22.3777L11.0556 23.8666L10.9111 24.011C10.4604 24.5305 10.2049 25.1908 10.1887 25.8784C10.1724 26.5659 10.3965 27.2376 10.8222 27.7777C11.1251 28.146 11.5099 28.4383 11.9459 28.6312C12.382 28.8242 12.8571 28.9124 13.3333 28.8888H31.8778C32.1725 28.8888 32.4551 28.7718 32.6635 28.5634C32.8718 28.355 32.9889 28.0724 32.9889 27.7777C32.9889 27.483 32.8718 27.2004 32.6635 26.992C32.4551 26.7837 32.1725 26.6666 31.8778 26.6666H13.1556C13.0276 26.6622 12.903 26.6249 12.7936 26.5583C12.6843 26.4917 12.594 26.398 12.5314 26.2863C12.4689 26.1746 12.4362 26.0487 12.4365 25.9207C12.4369 25.7926 12.4702 25.6669 12.5333 25.5555L15.2111 23.3333H32.3667C32.6235 23.3395 32.8746 23.2566 33.0772 23.0986C33.2798 22.9406 33.4213 22.7172 33.4778 22.4666L37 6.91104C37.0338 6.7454 37.0293 6.57422 36.987 6.41056C36.9446 6.24689 36.8655 6.09505 36.7556 5.9666Z" fill="white"/>
</svg>
