<svg width="21" height="21" viewBox="0 0 21 21" fill="none" xmlns="http://www.w3.org/2000/svg">
<rect x="0.5" y="0.5" width="20" height="20" rx="2.5" stroke="white"/>
<path d="M17.2019 6.14919L16.7508 5.69814C16.6091 5.5563 16.4201 5.47827 16.2184 5.47827C16.0167 5.47827 15.8276 5.5563 15.6859 5.69814L9.34803 12.0359L5.38824 8.07596C5.24651 7.93434 5.05743 7.8562 4.85569 7.8562C4.65407 7.8562 4.4651 7.93434 4.32326 8.07596L3.8721 8.5269C3.73026 8.66896 3.65234 8.85816 3.65234 9.05967C3.65234 9.26129 3.73026 9.45037 3.8721 9.59221L8.34294 14.0628C8.34887 14.0712 8.35514 14.0791 8.36242 14.0862L8.81358 14.5299C8.95531 14.6712 9.14439 14.7418 9.34769 14.7418H9.35004C9.55189 14.7418 9.74097 14.6712 9.88248 14.5299L10.3337 14.0823C10.341 14.0751 10.3472 14.0692 10.3509 14.0632L17.2018 7.21294C17.4956 6.91974 17.4956 6.44272 17.2019 6.14919Z" fill="white"/>
</svg>
