<svg width="46" height="28" viewBox="0 0 46 28" fill="none" xmlns="http://www.w3.org/2000/svg">
<rect width="46" height="28" rx="14" fill="#FFCA08"/>
<path d="M16.8998 17.8251C15.7416 17.8251 14.7998 18.7669 14.7998 19.9251C14.7998 21.0832 15.7416 22.0251 16.8998 22.0251C18.058 22.0251 18.9998 21.0832 18.9998 19.9251C18.9998 18.7669 18.0579 17.8251 16.8998 17.8251ZM16.8998 21.3251C16.1277 21.3251 15.4998 20.6972 15.4998 19.9251C15.4998 19.153 16.1277 18.5251 16.8998 18.5251C17.6719 18.5251 18.2998 19.153 18.2998 19.9251C18.2998 20.6972 17.6719 21.3251 16.8998 21.3251Z" fill="#212122"/>
<path d="M28.8002 17.8251C27.642 17.8251 26.7002 18.7669 26.7002 19.9251C26.7002 21.0832 27.642 22.0251 28.8002 22.0251C29.9584 22.0251 30.9002 21.0832 30.9002 19.9251C30.9002 18.7669 29.9584 17.8251 28.8002 17.8251ZM28.8002 21.3251C28.0281 21.3251 27.4002 20.6972 27.4002 19.9251C27.4002 19.153 28.0281 18.5251 28.8002 18.5251C29.5723 18.5251 30.2002 19.153 30.2002 19.9251C30.2002 20.6972 29.5723 21.3251 28.8002 21.3251Z" fill="#212122"/>
<path d="M32.9441 15.8857L29.7941 10.9857C29.7297 10.8856 29.6188 10.8251 29.4998 10.8251H25.6498C25.4562 10.8251 25.2998 10.9819 25.2998 11.1751V19.925C25.2998 20.1186 25.4562 20.275 25.6498 20.275H27.0498V19.575H25.9998V11.5251H29.3087L32.2998 16.178V19.5751H30.5498V20.2751H32.6498C32.8433 20.2751 32.9997 20.1186 32.9997 19.9251V16.0751C32.9998 16.0082 32.9806 15.9421 32.9441 15.8857Z" fill="#212122"/>
<path d="M27.4002 15.375V12.9251H30.2002V12.225H27.0502C26.8566 12.225 26.7002 12.3818 26.7002 12.575V15.725C26.7002 15.9186 26.8566 16.075 27.0502 16.075H32.3002V15.375H27.4002V15.375Z" fill="#212122"/>
<path d="M25.65 8.37506H12.35C12.1568 8.37506 12 8.53186 12 8.72505V19.9251C12 20.1186 12.1568 20.275 12.35 20.275H15.15V19.575H12.7V9.07503H25.3V19.575H18.65V20.275H25.65C25.8436 20.275 26 20.1186 26 19.9251V8.72505C26 8.53186 25.8436 8.37506 25.65 8.37506Z" fill="#212122"/>
<path d="M14.4496 18.175H12.3496V18.8751H14.4496V18.175Z" fill="#212122"/>
<path d="M25.2996 18.175H19.3496V18.8751H25.2996V18.175Z" fill="#212122"/>
<path d="M32.65 18.175H31.25V18.8751H32.65V18.175Z" fill="#212122"/>
<path d="M25.6504 9.77502H13.4004V10.475H25.6504V9.77502Z" fill="#212122"/>
<path d="M17.2498 19.575H16.5498V20.275H17.2498V19.575Z" fill="#212122"/>
<path d="M29.1502 19.575H28.4502V20.275H29.1502V19.575Z" fill="#212122"/>
<path d="M18.3004 6.97504H13.4004V7.67505H18.3004V6.97504Z" fill="#212122"/>
<path d="M12.7 6.97504H12V7.67505H12.7V6.97504Z" fill="#212122"/>
</svg>
