<svg width="100" height="42" id="Layer_1" data-name="Layer 1" xmlns="http://www.w3.org/2000/svg" viewBox="0 0 1000 419"><defs><style>.cls-1,.cls-2{fill:#fff;}.cls-1{fill-rule:evenodd;}.cls-3{fill:#ffca05;}</style></defs><title>РКЦ LOGO-01</title><path class="cls-1" d="M436.44,273.46,514.81,105q37.76,0,59.08,21.69,19.36,19.76,19.33,49.79v26.21q0,30.08-19.33,49.79-19.95,20.34-54.43,21.62l-4.65.13h-3.74c-9.21.48-16,2.62-20.38,7-5,5.07-7.42,13.75-7.42,26.17V404c-26.35-9.21-44.17-29.92-46.94-60V307.13l.11-4.58V176.48c0-20.06,6.4-36.61,19.3-49.79Q477.22,105,514.81,105m-24,45.52q7.34-7.29,24-7.3c11.19,0,19.32,2.49,24.26,7.52s7.38,13.68,7.38,26.06v25.57c0,12.38-2.43,21-7.38,26.06-4.7,4.79-12.32,7.29-22.7,7.5l-1.56,0-31.38,0,.08-24.92V168.18c1-7.85,3.43-13.77,7.33-17.66"/><path class="cls-2" d="M777.77,267.4H718.12l-59.28-68.12V267.4H613.38V104.78l45.46.37V164.8l49.41-59.65h57.5l-55.64,61c-3.58,5-5.38,9.89-5.4,14.57q0,7.68,6.82,16.82Z"/><polygon class="cls-2" points="481.79 199.49 481.79 217.12 436.33 217.12 436.33 105.02 481.79 105.36 481.79 165.03 481.79 199.49"/><path class="cls-2" d="M941.22,202.13c0,.87,0,1.73,0,2.58h0c0,10.46,0,26.09,0,26.09,29.86,1.87,36.87,19.7,42.78,41.27-10.74,5.84-41.71,8.51-42.78,3.82-2.39-10.45-20.11-13.21-36.34-10a48,48,0,0,0-8.17,2.2c-9.92,3.66-21.22,5.53-33.89,5.53q-37.58,0-59.08-21.73-19.35-19.71-19.32-49.77v-97H831v96.67q0,18.42,7.84,26.26c4.89,4.87,12.91,7.31,24,7.31s19.32-2.48,24.26-7.51,7.38-13.67,7.38-26.06l.17-96.67h46.59Z"/><path class="cls-2" d="M511.35,325.33v10.39c2.5-.14,4.92-.25,7.24-.33s4.29-.13,5.9-.13a44.17,44.17,0,0,1,6.1.39,13.86,13.86,0,0,1,4.84,1.57,8.27,8.27,0,0,1,3.2,3.4,12.52,12.52,0,0,1,1.17,5.86,12.71,12.71,0,0,1-1.17,5.89,8.07,8.07,0,0,1-3.23,3.39,13.65,13.65,0,0,1-4.9,1.57,51.17,51.17,0,0,1-6.15.36c-.94,0-2,0-3.29-.06l-4.09-.11-4.53-.18c-1.58-.07-3.14-.14-4.65-.27V321.86h29.5l-.3,3.47Zm24.89,21.15a8.13,8.13,0,0,0-.91-4.13,6.07,6.07,0,0,0-2.52-2.37,11,11,0,0,0-3.83-1.06,42.11,42.11,0,0,0-4.8-.25c-1.44,0-3.31,0-5.59.13s-4.7.18-7.24.31v14.77q3.81.21,7.24.3c2.28.06,4.15.1,5.59.1A44.66,44.66,0,0,0,529,354a11,11,0,0,0,3.83-1.07,6,6,0,0,0,2.52-2.37,8.06,8.06,0,0,0,.91-4.12"/><polygon class="cls-2" points="557.55 355.91 543.22 329.23 547.21 329.23 559.41 352.16 570.77 329.23 574.48 329.23 555.26 367.97 551.56 367.97 557.55 355.91"/><path class="cls-2" d="M576.07,365.59v-11.9h2.4a25.1,25.1,0,0,0,1.81-3.05,11.51,11.51,0,0,0,1-2.72,22.5,22.5,0,0,0,.55-3.35c.14-1.27.29-2.92.44-5l1-10.38h21.63v24.46h4.24v11.9h-3.5v-8.52h-26v8.52Zm9.72-26c-.16,1.88-.3,3.45-.42,4.72a26.12,26.12,0,0,1-.49,3.37,14.1,14.1,0,0,1-.93,2.84c-.42.92-1,2-1.66,3.15h19.06V332.55H586.44Z"/><polygon class="cls-2" points="627.23 355.91 612.92 329.23 616.91 329.23 629.12 352.16 640.48 329.23 644.17 329.23 624.96 367.97 621.26 367.97 627.23 355.91"/><path class="cls-2" d="M663.35,354.42c1.47,0,3.2-.06,5.19-.21a40.38,40.38,0,0,0,5.92-.91l.24,3.4c-2,.36-4,.64-6,.82s-3.88.27-5.56.27a19.45,19.45,0,0,1-5.68-.83,12.21,12.21,0,0,1-4.64-2.62,12.46,12.46,0,0,1-3.12-4.55,17.72,17.72,0,0,1-1.13-6.67,20.14,20.14,0,0,1,1.13-7.27,10.58,10.58,0,0,1,7.76-6.71,24.11,24.11,0,0,1,5.68-.64,53.87,53.87,0,0,1,5.56.29c2,.19,4,.46,6,.79l-.24,3.46a34.6,34.6,0,0,0-5.92-.9c-2-.17-3.72-.23-5.19-.23a22.15,22.15,0,0,0-4.18.39,9.15,9.15,0,0,0-3.46,1.45,7.83,7.83,0,0,0-2.45,2.95,13,13,0,0,0-1.13,4.83H671.9v3.21H652.13a12.14,12.14,0,0,0,1.21,4.41,9.13,9.13,0,0,0,5.88,4.73,15.43,15.43,0,0,0,4.13.54"/><polygon class="cls-2" points="710.87 357.07 710.87 336.06 699.8 352.16 696.79 352.16 685.68 336.06 685.68 357.07 682.16 357.07 682.16 329.23 685.23 329.23 698.26 348.4 711.36 329.23 714.42 329.23 714.42 357.07 710.87 357.07"/><path class="cls-2" d="M736.6,357.85a22.24,22.24,0,0,1-5.62-.71,11.18,11.18,0,0,1-7.86-6.89,18.4,18.4,0,0,1-1.19-7.13,19.38,19.38,0,0,1,1.11-7,11.22,11.22,0,0,1,3.1-4.49,11.53,11.53,0,0,1,4.63-2.41,22,22,0,0,1,5.74-.72,22.31,22.31,0,0,1,5.65.69,11.6,11.6,0,0,1,4.68,2.37,11.13,11.13,0,0,1,3.19,4.52,18.44,18.44,0,0,1,1.19,7.13,18.15,18.15,0,0,1-1.15,7,11.65,11.65,0,0,1-3.07,4.51,11.87,11.87,0,0,1-4.62,2.41,22.53,22.53,0,0,1-5.78.73m0-3.49a16.34,16.34,0,0,0,4.34-.53,8.32,8.32,0,0,0,5.87-5.25,14.93,14.93,0,0,0,.85-5.37,14.6,14.6,0,0,0-.88-5.47,8.71,8.71,0,0,0-2.43-3.46,8.81,8.81,0,0,0-3.55-1.81,18,18,0,0,0-4.29-.52,17,17,0,0,0-4.33.55,8.73,8.73,0,0,0-3.48,1.82,8.54,8.54,0,0,0-2.34,3.43,14.17,14.17,0,0,0-.87,5.37,14.48,14.48,0,0,0,.89,5.48,8.52,8.52,0,0,0,6,5.27,17.22,17.22,0,0,0,4.24.49"/><path class="cls-2" d="M771.49,368V329.58c1.27-.16,2.57-.31,3.88-.44s2.6-.25,3.83-.35,2.38-.17,3.44-.22,2-.07,2.76-.07a23.22,23.22,0,0,1,5.61.64,10.12,10.12,0,0,1,7.41,6.59,19.53,19.53,0,0,1,1.07,7,20.63,20.63,0,0,1-1.07,7.09,12.05,12.05,0,0,1-2.91,4.67,10.93,10.93,0,0,1-4.34,2.54,18.86,18.86,0,0,1-5.41.77,47.78,47.78,0,0,1-4.93-.3c-1.89-.19-3.83-.48-5.85-.87V368Zm13.91-13.55a15.8,15.8,0,0,0,4.23-.55,8.4,8.4,0,0,0,3.37-1.94,9.21,9.21,0,0,0,2.18-3.6,17,17,0,0,0,.8-5.61,16,16,0,0,0-.8-5.5,7.49,7.49,0,0,0-2.24-3.28,8.2,8.2,0,0,0-3.46-1.62,22,22,0,0,0-4.37-.41c-1,0-2.45,0-4.28.15s-3.77.26-5.85.54v20.7c1,.17,2,.37,3.06.51s2,.27,2.9.37a23.5,23.5,0,0,0,2.51.18c.78.05,1.43.06,1.95.06"/><path class="cls-2" d="M808.57,329.58c1.11-.19,2.33-.36,3.58-.5l3.66-.31c1.17-.09,2.25-.15,3.23-.2s1.8-.07,2.42-.07c4.12,0,7.37.95,9.71,2.84s3.53,4.84,3.53,8.76v10a12.35,12.35,0,0,0,.1,1.51,4.32,4.32,0,0,0,.37,1.3,2.42,2.42,0,0,0,.77.88,2.27,2.27,0,0,0,1.32.35,1.74,1.74,0,0,0,.6-.05.13.13,0,0,0,.1-.09l.19,3.41a3.22,3.22,0,0,1-.5,0h-.48a5.75,5.75,0,0,1-3.65-1,5.58,5.58,0,0,1-1.82-2.63,10.36,10.36,0,0,1-2.09,1.71,12.19,12.19,0,0,1-2.64,1.24,16,16,0,0,1-3.44.74,32,32,0,0,1-4.44.27,28.73,28.73,0,0,1-5-.4,11.57,11.57,0,0,1-3.91-1.37,6.89,6.89,0,0,1-2.53-2.74,12.24,12.24,0,0,1-.06-8.91,6.58,6.58,0,0,1,2.35-2.78,9.66,9.66,0,0,1,3.66-1.49,22.75,22.75,0,0,1,4.73-.45c.5,0,1.2,0,2.09.07s1.94.06,3.07.12,2.36.09,3.68.16,2.65.14,4,.26v-.21c0-2.74-.79-4.76-2.35-6.07s-4-2-7.39-2.07c-.65,0-1.47,0-2.44,0s-2,.11-3.16.2-2.3.23-3.5.37-2.36.3-3.44.48ZM819,354.36a35.22,35.22,0,0,0,4.25-.23,18.86,18.86,0,0,0,3.27-.72,9.8,9.8,0,0,0,2.54-1.22,13.49,13.49,0,0,0,2-1.81v-6.77c-1.39-.1-2.75-.19-4.1-.24l-3.81-.17c-1.18-.06-2.23-.12-3.12-.13s-1.53-.05-2-.05a18.61,18.61,0,0,0-3.22.27,6.76,6.76,0,0,0-2.48.94,4.58,4.58,0,0,0-1.58,1.77,6.15,6.15,0,0,0-.56,2.8,5.45,5.45,0,0,0,.64,2.87,4.15,4.15,0,0,0,1.8,1.72,8.38,8.38,0,0,0,2.77.79,31.55,31.55,0,0,0,3.52.18"/><path class="cls-2" d="M856.55,354.48c.68,0,1.48,0,2.41-.07a9.88,9.88,0,0,0,2.63-.5,4.93,4.93,0,0,0,2.14-1.35,3.54,3.54,0,0,0,.87-2.53,4.27,4.27,0,0,0-.71-2.46,5.17,5.17,0,0,0-1.9-1.63,9.21,9.21,0,0,0-2.84-.95,20,20,0,0,0-3.46-.29h-6.76v-3.43h6.32a21.17,21.17,0,0,0,3.39-.23,9.05,9.05,0,0,0,2.69-.83,5.21,5.21,0,0,0,1.81-1.56,4.14,4.14,0,0,0,.66-2.4,3.65,3.65,0,0,0-.8-2.52,4.23,4.23,0,0,0-2-1.28,11.77,11.77,0,0,0-2.77-.48q-1.5-.06-3-.06c-1.4,0-3.1.06-5.07.23a34.57,34.57,0,0,0-5.93.9l-.34-3.46c2-.33,4.06-.6,6.06-.79a54.44,54.44,0,0,1,5.68-.29,31.74,31.74,0,0,1,4.07.25,11.94,11.94,0,0,1,3.77,1.06,7,7,0,0,1,2.76,2.29,6.48,6.48,0,0,1,1.06,3.89,6.42,6.42,0,0,1-1.53,4.6,8.58,8.58,0,0,1-4.05,2.37,10.05,10.05,0,0,1,4.71,2.48,7.33,7.33,0,0,1,.59,8.74,8.17,8.17,0,0,1-3,2.3,12.76,12.76,0,0,1-4,1,33.25,33.25,0,0,1-4.13.27q-2.57,0-5.61-.27c-2-.18-4-.46-6-.82l.19-3.4a50.48,50.48,0,0,0,6.38.91c2,.15,4,.24,5.79.27"/><path class="cls-2" d="M890.19,357.85a22.48,22.48,0,0,1-5.65-.71,11.35,11.35,0,0,1-4.66-2.38,11.49,11.49,0,0,1-3.19-4.51,18.8,18.8,0,0,1-1.18-7.13,19.18,19.18,0,0,1,1.1-7,11,11,0,0,1,7.74-6.9,21.91,21.91,0,0,1,5.72-.72,22.36,22.36,0,0,1,5.67.69,11.77,11.77,0,0,1,4.69,2.37,11.52,11.52,0,0,1,3.19,4.52,19,19,0,0,1,1.17,7.13,18.76,18.76,0,0,1-1.13,7,11,11,0,0,1-7.71,6.92,22.43,22.43,0,0,1-5.76.73m0-3.49a16.31,16.31,0,0,0,4.33-.53A8.72,8.72,0,0,0,898,352a8.61,8.61,0,0,0,2.34-3.43,14.48,14.48,0,0,0,.87-5.37,14.19,14.19,0,0,0-.9-5.47,8.48,8.48,0,0,0-2.41-3.46,8.91,8.91,0,0,0-3.56-1.81,18,18,0,0,0-4.3-.52,17,17,0,0,0-4.32.55,8.36,8.36,0,0,0-5.83,5.25,17.26,17.26,0,0,0,0,10.85,8.59,8.59,0,0,0,2.42,3.45,8.74,8.74,0,0,0,3.56,1.82,17.27,17.27,0,0,0,4.26.49"/><polygon class="cls-2" points="941.01 357.07 941.01 336.06 929.94 352.16 926.92 352.16 915.82 336.06 915.82 357.07 912.32 357.07 912.32 329.23 915.36 329.23 928.4 348.4 941.49 329.23 944.56 329.23 944.56 357.07 941.01 357.07"/><path class="cls-3" d="M222.15,321.07a17.22,17.22,0,1,0-.26,34.44l1.9,0h.14v.08A150.38,150.38,0,0,0,329.8,98.43a17.24,17.24,0,1,0-24.32,24.45A115.85,115.85,0,0,1,223.93,321v.07Zm125.64,23.14A193.89,193.89,0,0,1,142,388.35l0,0V189c0-.26,0-.53,0-.79A74.07,74.07,0,1,1,237.8,274a17.22,17.22,0,0,0,10.8,32.71,108.52,108.52,0,1,0-140.86-123,17.44,17.44,0,0,0-.27,4.22c0,.41,0,.77,0,1.16v182h0a193.74,193.74,0,1,1,240.37-26.85m-134.28-103a33,33,0,1,0-33-33,33,33,0,0,0,33,33"/></svg>
