<svg width="18" height="22" viewBox="0 0 18 22" fill="none" xmlns="http://www.w3.org/2000/svg">
<path d="M8.86388 10.3927C10.2916 10.3927 11.5278 9.88063 12.5381 8.87029C13.5482 7.86012 14.0604 6.62412 14.0604 5.19619C14.0604 3.76875 13.5483 2.53258 12.538 1.52208C11.5276 0.51208 10.2915 0 8.86388 0C7.43595 0 6.19994 0.51208 5.18977 1.52225C4.1796 2.53242 3.66736 3.76859 3.66736 5.19619C3.66736 6.62412 4.1796 7.86029 5.18977 8.87046C6.20027 9.88046 7.43644 10.3927 8.86388 10.3927ZM6.0839 2.41621C6.85901 1.64109 7.76828 1.26432 8.86388 1.26432C9.95931 1.26432 10.8687 1.64109 11.644 2.41621C12.4191 3.19149 12.7961 4.10092 12.7961 5.19619C12.7961 6.29179 12.4191 7.20105 11.644 7.97633C10.8687 8.75161 9.95931 9.12839 8.86388 9.12839C7.76861 9.12839 6.85934 8.75145 6.0839 7.97633C5.30862 7.20122 4.93167 6.29179 4.93167 5.19619C4.93167 4.10092 5.30862 3.19149 6.0839 2.41621Z" fill="white"/>
<path d="M17.9564 16.59C17.9272 16.1696 17.8683 15.711 17.7816 15.2268C17.694 14.7389 17.5812 14.2777 17.4463 13.8561C17.3067 13.4204 17.1172 12.9901 16.8827 12.5778C16.6396 12.1498 16.3538 11.7772 16.0332 11.4705C15.6979 11.1497 15.2873 10.8918 14.8126 10.7036C14.3396 10.5165 13.8153 10.4217 13.2545 10.4217C13.0343 10.4217 12.8213 10.512 12.4099 10.7798C12.1568 10.9449 11.8606 11.1359 11.5301 11.3471C11.2475 11.5271 10.8646 11.6959 10.3917 11.8486C9.93034 11.9979 9.46188 12.0736 8.99934 12.0736C8.53714 12.0736 8.06868 11.9979 7.60696 11.8486C7.13455 11.696 6.75152 11.5273 6.46939 11.3472C6.142 11.138 5.84571 10.9471 5.58877 10.7797C5.17775 10.5119 4.96476 10.4215 4.74452 10.4215C4.18355 10.4215 3.65945 10.5165 3.18655 10.7038C2.71216 10.8916 2.30148 11.1495 1.96585 11.4707C1.64521 11.7775 1.35946 12.15 1.1165 12.5778C0.882272 12.9901 0.69265 13.4202 0.553066 13.8563C0.418256 14.2778 0.305503 14.7389 0.217934 15.2268C0.131024 15.7104 0.0722607 16.1691 0.043126 16.5905C0.0144851 17.0025 0 17.4313 0 17.8645C0 18.9907 0.358012 19.9025 1.06399 20.5749C1.76125 21.2384 2.68369 21.5748 3.80579 21.5748H14.1942C15.316 21.5748 16.2384 21.2384 16.9358 20.5749C17.642 19.903 18 18.9909 18 17.8644C17.9998 17.4296 17.9852 17.0009 17.9564 16.59ZM16.0641 19.6589C15.6034 20.0974 14.9917 20.3105 14.194 20.3105H3.80579C3.00796 20.3105 2.39629 20.0974 1.93573 19.659C1.4839 19.2289 1.26432 18.6418 1.26432 17.8645C1.26432 17.4603 1.27765 17.0611 1.30431 16.6779C1.33032 16.302 1.38349 15.889 1.46233 15.4501C1.54019 15.0167 1.63928 14.61 1.75714 14.2418C1.87022 13.8887 2.02445 13.5391 2.21572 13.2023C2.39827 12.8813 2.6083 12.606 2.84006 12.3841C3.05684 12.1765 3.33008 12.0066 3.65205 11.8792C3.94981 11.7614 4.28445 11.6969 4.64773 11.6871C4.69201 11.7107 4.77085 11.7556 4.89859 11.8389C5.15849 12.0083 5.45807 12.2015 5.78925 12.413C6.16257 12.6511 6.64354 12.866 7.21817 13.0515C7.80564 13.2415 8.4048 13.3379 8.99951 13.3379C9.59422 13.3379 10.1935 13.2415 10.7807 13.0517C11.3558 12.8659 11.8366 12.6511 12.2104 12.4127C12.5493 12.1961 12.8405 12.0084 13.1004 11.8389C13.2282 11.7558 13.307 11.7107 13.3513 11.6871C13.7147 11.6969 14.0494 11.7614 14.3473 11.8792C14.6691 12.0066 14.9423 12.1767 15.1591 12.3841C15.3909 12.6058 15.6009 12.8812 15.7835 13.2025C15.9749 13.5391 16.1293 13.8889 16.2422 14.2416C16.3602 14.6103 16.4595 15.0169 16.5372 15.45C16.6159 15.8896 16.6692 16.3028 16.6952 16.6781V16.6784C16.722 17.0601 16.7355 17.4591 16.7357 17.8645C16.7355 18.6419 16.5159 19.2289 16.0641 19.6589Z" fill="white"/>
</svg>
