<svg class="phone" width="26" height="26" viewBox="0 0 26 26" fill="none" xmlns="http://www.w3.org/2000/svg">
<path d="M25.332 20.1999L21.0241 15.892C20.1313 14.9992 18.6862 14.999 17.7932 15.892L16.7162 16.969C15.8253 17.8598 14.376 17.8597 13.4818 16.9655L8.97127 12.5147C8.08047 11.6239 8.08047 10.1746 8.97127 9.2838L10.0482 8.20684C10.939 7.31608 10.939 5.86674 10.0482 4.97593L5.74042 0.668065C4.84962 -0.222739 3.40017 -0.222637 2.50952 0.668065L1.43265 1.74503C0.0347481 3.14289 -0.376376 6.2249 0.359697 9.78821C0.828813 12.0592 2.17842 16.4316 5.94664 20.1998C9.70724 23.9605 14.0442 25.2511 16.2947 25.6857C18.7684 26.1634 22.4859 26.2767 24.255 24.5077L25.3321 23.4307C26.2227 22.54 26.2227 21.0906 25.332 20.1999ZM3.58659 1.74503C3.88356 1.44811 4.36659 1.44806 4.6636 1.74503L8.97147 6.0529C9.26844 6.34987 9.26844 6.83295 8.97147 7.12992L8.43568 7.66571L3.05074 2.28088L3.58659 1.74503ZM16.5835 24.1903C14.5041 23.7887 10.4971 22.5964 7.02361 19.1229C3.53596 15.6352 2.28598 11.5843 1.85129 9.48012C1.27548 6.69285 1.51522 4.59767 2.07432 3.45834L7.41229 8.79636C6.43267 10.2743 6.59365 12.291 7.89796 13.5952L12.4084 18.046C13.709 19.3466 15.7245 19.5085 17.2037 18.5281L22.546 23.8704C20.9181 24.696 18.3864 24.5384 16.5835 24.1903ZM24.255 22.3538L23.7192 22.8896L18.3344 17.5048L18.8701 16.969C19.1677 16.6714 19.6494 16.6714 19.9471 16.969L24.255 21.2769C24.5519 21.5738 24.5519 22.0569 24.255 22.3538Z" fill="white"/>
<path d="M14.5758 0.000732422C14.1553 0.000732422 13.8143 0.341677 13.8143 0.762247C13.8143 1.18282 14.1553 1.52376 14.5758 1.52376C20.0346 1.52376 24.4757 5.96483 24.4757 11.4236C24.4757 11.8442 24.8166 12.1851 25.2372 12.1851C25.6578 12.1851 25.9987 11.8442 25.9987 11.4236C25.9987 5.12501 20.8744 0.000732422 14.5758 0.000732422Z" fill="white"/>
<path d="M14.5758 3.04663C14.1553 3.04663 13.8143 3.38758 13.8143 3.80815C13.8143 4.22872 14.1553 4.56966 14.5758 4.56966C18.355 4.56966 21.4296 7.64426 21.4296 11.4234C21.4296 11.844 21.7705 12.1849 22.1911 12.1849C22.6117 12.1849 22.9526 11.844 22.9526 11.4234C22.9526 6.80444 19.1948 3.04663 14.5758 3.04663Z" fill="white"/>
<path d="M14.5758 6.09277C14.1553 6.09277 13.8143 6.43372 13.8143 6.85429C13.8143 7.27486 14.1553 7.6158 14.5758 7.6158C16.6754 7.6158 18.3835 9.32388 18.3835 11.4234C18.3835 11.844 18.7244 12.1849 19.145 12.1849C19.5656 12.1849 19.9065 11.844 19.9065 11.4234C19.9066 8.48411 17.5152 6.09277 14.5758 6.09277Z" fill="white"/>
<path d="M14.5758 9.13892C14.1553 9.13892 13.8143 9.47986 13.8143 9.90043C13.8143 10.321 14.1553 10.6619 14.5758 10.6619C14.9958 10.6619 15.3374 11.0035 15.3374 11.4235C15.3374 11.844 15.6783 12.185 16.0989 12.185C16.5194 12.185 16.8604 11.844 16.8604 11.4235C16.8604 10.1637 15.8356 9.13892 14.5758 9.13892Z" fill="white"/>
</svg>
