<svg width="60" height="60" viewBox="0 0 60 60" fill="none" xmlns="http://www.w3.org/2000/svg">
<path d="M59.8105 36.4145L33.8106 0.414492C33.6227 0.154102 33.3211 -0.000117121 33 6.67381e-08H27C26.6789 -0.000117121 26.3773 0.154102 26.1894 0.414492L0.189492 36.4145C0.0663282 36.5849 9.76602e-08 36.7898 9.76602e-08 37V58.9999C-0.00011709 59.2651 0.105234 59.5195 0.292852 59.7071C0.480352 59.8946 0.734766 60 1.00008 60H59C59.2652 60.0001 59.5196 59.8948 59.7073 59.7071C59.8948 59.5196 60.0001 59.2652 60.0001 58.9999V37C60 36.7898 59.9337 36.5849 59.8105 36.4145ZM2.00004 42H4.00008V54H2.00004V42ZM58 58H2.00004V55.9999H58.0001V58H58ZM26.1704 54H22.1675L6 43.4582V42H7.77363L26.1704 54ZM11.4332 42H27V52.1543L11.4332 42ZM18.5057 54H6V45.8459L18.5057 54ZM29 54V42H31.0001V54H29ZM37.8326 54H33.8297L52.2264 42H54V43.4582L37.8326 54ZM54 45.8459V54H41.4943L54 45.8459ZM33 52.1543V42H48.5668L33 52.1543ZM58 54H55.9999V42H58V54ZM58 40H2.00004V37.3232L27.5118 1.99992H32.4884L58.0001 37.3232V40H58Z" fill="#212122"/>
<path d="M17.6368 20.9153C17.6169 20.8986 17.6066 20.875 17.585 20.8594C17.554 20.843 17.522 20.8285 17.4892 20.8158C17.3721 20.7454 17.2404 20.7027 17.1043 20.691C17.07 20.682 17.0352 20.675 17 20.6699C16.9732 20.6699 16.9508 20.683 16.9246 20.6852C16.6629 20.7116 16.4208 20.8354 16.2461 21.0319C16.229 21.0521 16.205 21.0626 16.1895 21.0844L5.11923 36.4145C4.89915 36.7189 4.86833 37.1209 5.03931 37.4553C5.21028 37.7897 5.55423 38.0001 5.92982 38H17.0002C17.2654 38.0001 17.5198 37.8947 17.7074 37.7071C17.8949 37.5196 18.0002 37.2652 18.0002 36.9999V21.67C18.0002 21.6426 17.9868 21.6196 17.9847 21.5928C17.9577 21.3312 17.8336 21.0895 17.6368 20.9153ZM16.0001 36H7.88591L16.0002 24.7628V36H16.0001Z" fill="#212122"/>
<path d="M32 5.43945C31.9654 5.44449 31.9311 5.45141 31.8972 5.4602C31.7614 5.47156 31.6299 5.51387 31.5129 5.58383C31.4792 5.59695 31.4461 5.61195 31.414 5.62883C31.392 5.64477 31.3813 5.66879 31.3611 5.68625C31.1654 5.86051 31.0421 6.10191 31.0155 6.36266C31.0134 6.38938 31 6.41223 31 6.43941V36.9996C30.9999 37.2648 31.1052 37.5192 31.2929 37.7068C31.4805 37.8943 31.7348 37.9996 32.0001 37.9996H38.9999C39.2651 37.9998 39.5195 37.8944 39.7072 37.7068C39.8947 37.5193 40 37.2649 40 36.9996V16.1295C39.995 16.0937 39.9878 16.0582 39.9786 16.0231C39.9668 15.8879 39.9244 15.7572 39.8546 15.6409C39.8418 15.6078 39.8272 15.5755 39.8106 15.5441L32.8107 5.85406C32.7951 5.83227 32.7712 5.82172 32.7541 5.80156C32.7092 5.75023 32.659 5.70383 32.6045 5.66305C32.4504 5.54574 32.2668 5.47355 32.0741 5.45445C32.0482 5.45246 32.0262 5.43945 32 5.43945ZM32.9999 9.53129L38 16.4527V35.9996H32.9999V9.53129Z" fill="#212122"/>
<path d="M28.9441 6.16355C28.888 5.97957 28.7823 5.81445 28.6387 5.68637C28.6184 5.66902 28.6077 5.64488 28.5857 5.62895C28.5539 5.61219 28.5211 5.5973 28.4874 5.5843C28.3702 5.51422 28.2386 5.4718 28.1027 5.4602C28.0688 5.45141 28.0345 5.44449 27.9998 5.43945C27.9734 5.43945 27.9515 5.45234 27.9256 5.45445C27.6636 5.48047 27.421 5.60434 27.2462 5.80121C27.2291 5.82148 27.205 5.83203 27.1893 5.85406L20.1894 15.5441C20.1729 15.5756 20.1581 15.6079 20.1453 15.6411C20.0754 15.7573 20.033 15.8881 20.0214 16.0232C20.0122 16.0582 20.005 16.0937 20 16.1294V36.9996C19.9999 37.2648 20.1052 37.5192 20.2929 37.7068C20.4804 37.8943 20.7348 37.9996 21.0001 37.9996H28C28.2652 37.9998 28.5196 37.8944 28.7073 37.7068C28.8948 37.5193 29.0001 37.2649 29.0001 36.9996V6.43953C29.0001 6.41223 28.9866 6.38938 28.9846 6.36266C28.9779 6.29516 28.9644 6.22836 28.9441 6.16355ZM26.9997 35.9996H21.9997V16.4526L26.9997 9.53129V35.9996Z" fill="#212122"/>
<path d="M43 38.0001H54.0703C54.4459 38.0002 54.7898 37.7898 54.9608 37.4554C55.1318 37.1209 55.1009 36.719 54.8809 36.4146L43.8105 21.0845C43.795 21.0629 43.7711 21.0524 43.7542 21.0324C43.5793 20.8357 43.3371 20.7119 43.0753 20.6852C43.0491 20.683 43.0267 20.6699 43 20.6699C42.9649 20.675 42.9302 20.682 42.896 20.6909C42.76 20.7024 42.6285 20.7449 42.5115 20.8154C42.4786 20.8281 42.4464 20.8429 42.4151 20.8593C42.3936 20.8748 42.3833 20.8983 42.3634 20.9152C42.1666 21.0893 42.0424 21.3312 42.0156 21.5927C42.0134 21.6195 42 21.6426 42 21.6699V37C41.9999 37.2652 42.1052 37.5196 42.2929 37.7072C42.4804 37.8947 42.7348 38.0001 43 38.0001ZM44 24.7628L52.1143 36H44V24.7628Z" fill="#212122"/>
</svg>
