<?xml version="1.0" encoding="UTF-8"?>
<svg xmlns="http://www.w3.org/2000/svg" xmlns:xlink="http://www.w3.org/1999/xlink" width="1415pt" height="1415pt" viewBox="0 0 1415 1415" version="1.1">
<g id="surface1">
<rect x="0" y="0" width="1415" height="1415" style="fill:rgb(0%,0%,0%);fill-opacity:1;stroke:none;"/>
<path style="fill:rgb(100%,100%,100%);fill-rule:nonzero; stroke:none;fill-opacity:1;" d="M 545.945313 342.148438 C 545.945313 232.058594 467.550781 232.058594 419.835938 232.058594 L 266.457031 232.058594 L 266.457031 452.238281 L 419.835938 452.238281 C 467.550781 452.238281 545.945313 452.238281 545.945313 342.148438 M 767.488281 342.148438 C 767.488281 543.695313 632.007813 638.539063 488.003906 638.539063 L 44.910156 638.539063 L 44.910156 45.761719 L 488.003906 45.761719 C 632.007813 45.761719 767.488281 140.601563 767.488281 342.148438 "/>
<path style="fill:rgb(100%,100%,100%);fill-rule:nonzero; stroke:none;fill-opacity:1;" d="M 124.121094 1297.84375 C 124.121094 1280.296875 111.523438 1273.546875 88.574219 1273.546875 C 65.625 1273.546875 53.175781 1280.296875 53.175781 1297.84375 C 53.175781 1315.242188 65.625 1321.992188 88.574219 1321.992188 C 111.523438 1321.992188 124.121094 1315.242188 124.121094 1297.84375 M 149.773438 1221.949219 L 149.773438 1341.941406 L 124.121094 1341.941406 L 124.121094 1328.144531 C 114.523438 1338.191406 99.074219 1343.441406 80.027344 1343.441406 C 51.675781 1343.441406 27.378906 1331.59375 27.378906 1297.84375 C 27.378906 1264.097656 51.675781 1252.097656 80.027344 1252.097656 C 99.074219 1252.097656 114.523438 1257.347656 124.121094 1267.394531 L 124.121094 1221.949219 "/>
<path style="fill:rgb(100%,100%,100%);fill-rule:nonzero; stroke:none;fill-opacity:1;" d="M 186.679688 1287.492188 L 253.726563 1287.492188 C 249.375 1275.046875 236.777344 1271.597656 220.578125 1271.597656 C 203.027344 1271.597656 190.726563 1275.046875 186.679688 1287.492188 M 254.175781 1310.292969 L 279.675781 1310.292969 C 273.824219 1332.792969 251.925781 1343.441406 219.226563 1343.441406 C 185.628906 1343.441406 159.527344 1330.242188 159.527344 1297.84375 C 159.527344 1265.296875 184.878906 1252.097656 220.726563 1252.097656 C 254.324219 1252.097656 281.175781 1263.644531 281.175781 1303.84375 L 185.777344 1303.84375 C 188.628906 1317.941406 202.128906 1322.59375 219.226563 1322.59375 C 236.925781 1322.59375 247.726563 1319.292969 254.175781 1310.292969 "/>
<path style="fill:rgb(100%,100%,100%);fill-rule:nonzero; stroke:none;fill-opacity:1;" d="M 401.773438 1253.597656 L 356.925781 1341.941406 L 320.328125 1341.941406 L 275.628906 1253.597656 L 304.128906 1253.597656 L 338.777344 1323.792969 L 373.273438 1253.597656 "/>
<path style="fill:rgb(100%,100%,100%);fill-rule:nonzero; stroke:none;fill-opacity:1;" d="M 424.28125 1287.492188 L 491.328125 1287.492188 C 486.976563 1275.046875 474.378906 1271.597656 458.179688 1271.597656 C 440.628906 1271.597656 428.328125 1275.046875 424.28125 1287.492188 M 491.777344 1310.292969 L 517.277344 1310.292969 C 511.425781 1332.792969 489.527344 1343.441406 456.828125 1343.441406 C 423.230469 1343.441406 397.132813 1330.242188 397.132813 1297.84375 C 397.132813 1265.296875 422.480469 1252.097656 458.328125 1252.097656 C 491.925781 1252.097656 518.777344 1263.644531 518.777344 1303.84375 L 423.378906 1303.84375 C 426.230469 1317.941406 439.730469 1322.59375 456.828125 1322.59375 C 474.527344 1322.59375 485.328125 1319.292969 491.777344 1310.292969 "/>
<path style="fill:rgb(100%,100%,100%);fill-rule:nonzero; stroke:none;fill-opacity:1;" d="M 528.53125 1341.941406 L 554.183594 1341.941406 L 554.183594 1221.945313 L 528.53125 1221.945313 Z M 528.53125 1341.941406 "/>
<path style="fill:rgb(100%,100%,100%);fill-rule:nonzero; stroke:none;fill-opacity:1;" d="M 660.527344 1297.84375 C 660.527344 1279.394531 648.828125 1273.546875 625.132813 1273.546875 C 601.28125 1273.546875 589.582031 1279.394531 589.582031 1297.84375 C 589.582031 1316.144531 601.28125 1321.992188 625.132813 1321.992188 C 648.828125 1321.992188 660.527344 1316.144531 660.527344 1297.84375 M 563.933594 1297.84375 C 563.933594 1265.296875 588.53125 1252.097656 625.132813 1252.097656 C 661.578125 1252.097656 686.328125 1265.296875 686.328125 1297.84375 C 686.328125 1330.242188 661.578125 1343.441406 625.132813 1343.441406 C 588.53125 1343.441406 563.933594 1330.242188 563.933594 1297.84375 "/>
<path style="fill:rgb(100%,100%,100%);fill-rule:nonzero; stroke:none;fill-opacity:1;" d="M 792.828125 1297.84375 C 792.828125 1280.296875 780.230469 1273.546875 757.28125 1273.546875 C 734.332031 1273.546875 721.882813 1280.296875 721.882813 1297.84375 C 721.882813 1315.242188 734.332031 1321.992188 757.28125 1321.992188 C 780.230469 1321.992188 792.828125 1315.242188 792.828125 1297.84375 M 818.480469 1297.84375 C 818.480469 1331.59375 794.328125 1343.441406 765.832031 1343.441406 C 746.78125 1343.441406 731.484375 1338.34375 721.882813 1328.292969 L 721.882813 1379.441406 L 696.085938 1379.441406 L 696.085938 1253.597656 L 721.882813 1253.597656 L 721.882813 1267.246094 C 731.484375 1257.347656 746.78125 1252.097656 765.832031 1252.097656 C 794.328125 1252.097656 818.480469 1264.097656 818.480469 1297.84375 "/>
<path style="fill:rgb(100%,100%,100%);fill-rule:nonzero; stroke:none;fill-opacity:1;" d="M 1019.628906 1292.445313 L 1019.328125 1341.941406 L 993.679688 1341.941406 L 993.679688 1302.792969 C 993.679688 1284.046875 990.527344 1274.296875 972.230469 1274.296875 C 958.730469 1274.296875 945.53125 1280.746094 937.730469 1287.796875 C 937.882813 1289.296875 937.882813 1290.796875 937.882813 1292.445313 L 937.582031 1341.941406 L 911.933594 1341.941406 L 911.933594 1302.792969 C 911.933594 1284.046875 908.78125 1274.296875 890.484375 1274.296875 C 875.632813 1274.296875 861.234375 1281.945313 853.886719 1289.894531 L 853.886719 1341.941406 L 828.234375 1341.941406 L 828.234375 1253.59375 L 853.886719 1253.59375 L 853.886719 1267.996094 C 863.484375 1260.34375 877.882813 1252.09375 899.78125 1252.09375 C 913.132813 1252.09375 925.730469 1255.996094 932.480469 1268.296875 C 943.882813 1259.746094 959.632813 1252.09375 981.527344 1252.09375 C 1001.328125 1252.09375 1019.328125 1260.496094 1019.628906 1292.445313 "/>
<path style="fill:rgb(100%,100%,100%);fill-rule:nonzero; stroke:none;fill-opacity:1;" d="M 1055.789063 1287.492188 L 1122.828125 1287.492188 C 1118.480469 1275.046875 1105.878906 1271.597656 1089.679688 1271.597656 C 1072.140625 1271.597656 1059.839844 1275.046875 1055.789063 1287.492188 M 1123.28125 1310.292969 L 1148.78125 1310.292969 C 1142.929688 1332.792969 1121.03125 1343.441406 1088.339844 1343.441406 C 1054.738281 1343.441406 1028.640625 1330.242188 1028.640625 1297.84375 C 1028.640625 1265.296875 1053.988281 1252.097656 1089.839844 1252.097656 C 1123.429688 1252.097656 1150.28125 1263.644531 1150.28125 1303.84375 L 1054.890625 1303.84375 C 1057.738281 1317.941406 1071.238281 1322.59375 1088.339844 1322.59375 C 1106.03125 1322.59375 1116.828125 1319.292969 1123.28125 1310.292969 "/>
<path style="fill:rgb(100%,100%,100%);fill-rule:nonzero; stroke:none;fill-opacity:1;" d="M 1283.03125 1293.042969 L 1282.730469 1341.941406 L 1256.929688 1341.941406 L 1256.929688 1302.792969 C 1256.929688 1284.046875 1250.640625 1274.296875 1229.488281 1274.296875 C 1212.238281 1274.296875 1193.640625 1283.144531 1185.691406 1292.445313 L 1185.691406 1341.941406 L 1160.039063 1341.941406 L 1160.039063 1253.597656 L 1185.691406 1253.597656 L 1185.691406 1269.046875 C 1198.289063 1259.144531 1215.691406 1252.097656 1237.140625 1252.097656 C 1260.679688 1252.097656 1282.730469 1260.496094 1283.03125 1293.042969 "/>
<path style="fill:rgb(100%,100%,100%);fill-rule:nonzero; stroke:none;fill-opacity:1;" d="M 1336.738281 1275.046875 L 1336.738281 1300.542969 C 1336.738281 1317.644531 1340.039063 1321.992188 1355.640625 1321.992188 C 1363.738281 1321.992188 1368.238281 1321.992188 1378.589844 1320.492188 L 1378.589844 1341.191406 C 1370.039063 1342.691406 1360.289063 1343.441406 1348.441406 1343.441406 C 1325.640625 1343.441406 1310.941406 1334.894531 1310.941406 1315.394531 L 1310.941406 1275.046875 L 1287.691406 1275.046875 L 1287.691406 1253.597656 L 1310.941406 1253.597656 L 1310.941406 1235.296875 L 1336.738281 1227.945313 L 1336.738281 1253.597656 L 1378.589844 1253.597656 L 1378.589844 1275.046875 "/>
<path style="fill:rgb(100%,100%,100%);fill-rule:nonzero; stroke:none;fill-opacity:1;" d="M 988.488281 556.449219 C 1222.75 556.449219 1344.898438 636.570313 1354.101563 817.257813 L 1131.550781 817.257813 C 1123.191406 763.296875 1080.519531 736.316406 988.488281 736.316406 C 859.644531 736.316406 837.890625 789.460938 837.890625 849.960938 C 837.890625 911.277344 860.480469 965.238281 988.488281 965.238281 C 1080.519531 965.238281 1123.191406 937.441406 1131.550781 882.664063 L 1354.101563 882.664063 C 1344.898438 1064.164063 1223.578125 1145.105469 988.488281 1145.105469 C 730.800781 1145.105469 620.363281 1049.449219 620.363281 849.960938 C 620.363281 651.285156 730.800781 556.449219 988.488281 556.449219 "/>
</g>
</svg>
