<svg xmlns="http://www.w3.org/2000/svg" viewBox="0 0 2000 1975"><defs><style>.cls-1{isolation:isolate;}.cls-13,.cls-2{fill:#ffca00;}.cls-3{fill:#ced1d2;}.cls-4{fill:#6d6e71;}.cls-5{fill:#414042;}.cls-6{fill:#59595b;}.cls-7{fill:#8b5139;}.cls-8{fill:#633b29;}.cls-9{fill:#cdd0d1;}.cls-10{fill:#fff;}.cls-11{fill:#909294;}.cls-12{fill:#808083;}.cls-13,.cls-14{opacity:0.19;}.cls-13{mix-blend-mode:multiply;}.cls-14{fill:#fcb83a;mix-blend-mode:screen;}</style></defs><title>1</title><g class="cls-1"><g id="Layer_1" data-name="Layer 1"><polygon class="cls-2" points="1.31 1056.44 598.7 1664.73 1026.97 1236.46 1.31 199.9 1.31 1056.44"/><polygon class="cls-2" points="1.31 362.77 1276.33 1637.78 1704.6 1209.51 495.09 0 1.31 0 1.31 362.77"/><polygon class="cls-2" points="1526.59 1068.64 1954.86 640.37 1314.49 0 457.94 0 1526.59 1068.64"/><path class="cls-3" d="M1983.64,1858.33l-239.2-239-77.59-40.8-10.22,10.22-43.58-43.54a34.06,34.06,0,0,0-44.82-2.83l-242.44,187.71a13,13,0,0,1-17-1.08L1260,1680.26a12.91,12.91,0,0,1,0-18.24l-3.84-3.83h0l24.27,24.25a8,8,0,0,0,11.24,0l7.68-7.68-30.9-30.88,32.34,32.31a23.17,23.17,0,0,0,32.79,0l395.32-395.67a23.19,23.19,0,0,0,0-32.78l-1.44-1.44,7.67-7.68a7.94,7.94,0,0,0,0-11.24l-23.2-23.18h0L1683.69,1176h0l-3-3a8,8,0,0,0-11.24,0l-7.67,7.69-2.88-2.88a23.19,23.19,0,0,0-32.78,0l-395.31,395.68a23.19,23.19,0,0,0,0,32.79l2.88,2.88-7.68,7.68a7.93,7.93,0,0,0,0,11.23l27.26,27.23-4.38-4.37-3.87-3.87a33.39,33.39,0,0,0-4.12,5,34,34,0,0,0,4.14,43.08l48.8,48.76a34,34,0,0,0,44.83,2.82l242.45-187.7a12.92,12.92,0,0,1,17,1.08l43.58,43.54,4-4h0l7-7h0l-16.83,16.84-5.67,5.68,40.88,77.55,239.21,239a51.9,51.9,0,0,0,72.79.6l.24-.24a4.93,4.93,0,0,0,.4-.39,5,5,0,0,0,.39-.41l.24-.24A51.91,51.91,0,0,0,1983.64,1858.33Zm-36.6,57.22L1930,1898.47a14.41,14.41,0,1,1,20.38-20.39l17.09,17.07a14.42,14.42,0,1,1-20.38,20.4Z"/><path class="cls-4" d="M1671,1680.5l239.21,239a51.91,51.91,0,0,0,72.79.59l.24-.24a2.94,2.94,0,0,0,.4-.39,3.68,3.68,0,0,0,.39-.4c7.82-8.85-1.74-31.77-21.71-51.72l-239.21-239Zm296.39,202.34a14.42,14.42,0,1,1-20.38,20.4L1930,1886.17a14.42,14.42,0,1,1,20.38-20.4Z"/><path class="cls-5" d="M1744.44,1607l239.2,239a51.9,51.9,0,0,1,.66,72.78l-.24.25c7.82-8.85-1.74-31.77-21.71-51.72l-239.21-239Z"/><path class="cls-6" d="M1683.05,1668.47l239.2,239c20,20,46.92,25.47,60.78,12.62l.24-.24a2.94,2.94,0,0,0,.4-.39,3.68,3.68,0,0,0,.39-.4c7.82-8.85-1.74-31.77-21.71-51.72l-239.21-239Zm284.37,214.37a14.42,14.42,0,1,1-20.38,20.4L1930,1886.17a14.42,14.42,0,1,1,20.38-20.4Z"/><path class="cls-2" d="M1658.92,1165.54l69.93,69.87a23.19,23.19,0,0,1,0,32.78l-395.32,395.68a23.18,23.18,0,0,1-32.79,0L1230.83,1594a23.19,23.19,0,0,1,0-32.79l395.31-395.68A23.18,23.18,0,0,1,1658.92,1165.54Z"/><path class="cls-7" d="M1233.71,1596.89l65.61,65.56-7.68,7.68a8,8,0,0,1-11.24,0L1226,1615.82a8,8,0,0,1,0-11.24Z"/><path class="cls-8" d="M1233.71,1596.89l8.59,8.59L1229,1618.79l-3-3a8,8,0,0,1,0-11.24Z"/><path class="cls-8" d="M1270.49,1633.65l28.83,28.8-7.68,7.68a8,8,0,0,1-11.24,0L1257.2,1647Z"/><path class="cls-7" d="M1661.8,1168.42l65.61,65.55,7.67-7.68a7.94,7.94,0,0,0,0-11.24l-54.37-54.32a8,8,0,0,0-11.24,0Z"/><path class="cls-8" d="M1661.8,1168.42l8.6,8.59,13.29-13.31-3-3a8,8,0,0,0-11.24,0Z"/><path class="cls-8" d="M1698.58,1205.17l28.83,28.8,7.67-7.68a7.94,7.94,0,0,0,0-11.24l-23.2-23.18Z"/><path class="cls-9" d="M1570,1532.29,1327.5,1720a15.74,15.74,0,0,1-20.72-1.3l-48.8-48.76a15.72,15.72,0,0,1-3.43-17l-1.92-2.56s.79-1.11,1.68-2.29a22.48,22.48,0,0,1,1.82-2.16l-7.22-7.21a25.35,25.35,0,0,0-1.82,2.16c-.9,1.2-1.65,2.33-1.65,2.33l-2.26-1.68a31.21,31.21,0,0,0,3.87,39.41l48.8,48.75a31.23,31.23,0,0,0,41.12,2.59l242.45-187.69a15.73,15.73,0,0,1,20.71,1.3l43.57,43.54,10.94-11-43.58-43.53A31.23,31.23,0,0,0,1570,1532.29Z"/><path class="cls-10" d="M1577.7,1542.3,1335.26,1730a28.42,28.42,0,0,1-37.43-2.36L1249,1678.9a28.44,28.44,0,0,1-3.59-35.74s.75-1.13,1.65-2.33a25.35,25.35,0,0,1,1.82-2.16l-3.87-3.87a33,33,0,0,0-4.12,5,34,34,0,0,0,4.14,43.07l48.8,48.76a34,34,0,0,0,44.83,2.82l242.45-187.7a12.92,12.92,0,0,1,17,1.08l43.58,43.54,4-4-43.59-43.54A18.56,18.56,0,0,0,1577.7,1542.3Z"/><path class="cls-11" d="M1568.23,1530.07l-242.44,187.71a13,13,0,0,1-17-1.08L1260,1668a12.89,12.89,0,0,1,0-18.23l-4-4a16.22,16.22,0,0,0-3.28,4.66,18.56,18.56,0,0,0,3.37,21.6l48.79,48.76a18.56,18.56,0,0,0,24.43,1.54l242.45-187.71a28.41,28.41,0,0,1,37.4,2.37l43.58,43.54,4-4-43.58-43.54A34,34,0,0,0,1568.23,1530.07Z"/><polygon class="cls-12" points="1630.15 1602.96 1635.82 1597.27 1682.38 1669.14 1671.03 1680.5 1630.15 1602.96"/><polygon class="cls-4" points="1723.14 1628.34 1682.38 1669.14 1635.82 1597.27 1656.2 1576.87 1723.14 1628.34"/><polygon class="cls-6" points="1744.43 1607.03 1723.14 1628.34 1656.2 1576.87 1666.85 1566.22 1744.43 1607.03"/><line class="cls-2" x1="632" y1="1653.06" x2="1012.61" y2="1274.99"/><path class="cls-2" d="M996,1277c.7-1,2.35-.85,2.43-.12.66-2.85,1.94-1.63.06-4,.09-2.15,2.72-1.9,2.3.23l2-4.52-2.27,1.59c-1.22-2.29,3.63-2.55,2.2-5.22l-3.34,3.66-.41-.76c-.17,1.43-2,2.71-2.78,3-.2-.38-.72-.79-.16-1.46-4.37,4.08,1.93,4.22-1,8.31A2,2,0,0,1,996,1277Z"/><path class="cls-2" d="M988.11,1276.29l.72,3.68-3.05,1.89c.73.8-.47,3.21,1.43,2.67a2.84,2.84,0,0,1,.82-1.37c1.36,1.93-2.49,4.11-.1,5.06,1.53-2.39,2.19-2.33,2.07-4.87a11.26,11.26,0,0,1,5.08-2.79c.29-.78-.65-1.87-.17-2.75a5.49,5.49,0,0,1-.39.53l-2.55-2.42c0,1.09-.82,1.38-1.4,2l0-5.79c-3.25-1.39-4.75,2.81-6.85,3C987.24,1275.84,983.65,1277.31,988.11,1276.29Z"/><path class="cls-2" d="M994.91,1277.81l.07-.07Z"/><path class="cls-2" d="M792.07,1508a1.53,1.53,0,0,0,0,1.81l6.91-7c-.87-.43-3.68.75-2.72-1-1.32-.13-2.52,2.29-1.91,3.44l-.49-1.5c-.33,2.87-3.92,1.45-3.62-.33l-.12.14.43,9.31C792.51,1511.62,790.17,1510,792.07,1508Z"/><path class="cls-2" d="M646.67,1647.48c.68-1.12.56-1.47.21-1.61A4.91,4.91,0,0,0,646.67,1647.48Z"/><path class="cls-2" d="M790.69,1515.14l.14,2.91A7.48,7.48,0,0,0,790.69,1515.14Z"/><path class="cls-2" d="M777.15,1482.22a1,1,0,0,0-.28-.24l.15,1.4h0C777.1,1483,777.13,1482.59,777.15,1482.22Z"/><path class="cls-2" d="M764.85,1552.27l-.35.56A2.6,2.6,0,0,0,764.85,1552.27Z"/><path class="cls-2" d="M787.29,1454.72l-1.63,4.55c-.28-1.1-1.57.59-1.72-.87-.13.34-1,1.72-.3,1.78l.58-.68c.4,3.66,2.16,3.46,1,7.7,2.87-.46,2.51-2.29,2.48-4.11a7.93,7.93,0,0,1,.53-1.09l-.25-5.4Z"/><path class="cls-2" d="M678.3,1593.1l-.12-.2A.4.4,0,0,0,678.3,1593.1Z"/><path class="cls-2" d="M677.67,1592.12l.51.78C678,1592.42,678.35,1591.47,677.67,1592.12Z"/><path class="cls-2" d="M789.9,1513.31a4.8,4.8,0,0,1,.79,1.83l-.1-2.19A4.39,4.39,0,0,1,789.9,1513.31Z"/><path class="cls-2" d="M787.84,1506.52l2.32-2.88-.09-2C789.47,1503,788.58,1504.45,787.84,1506.52Z"/><path class="cls-2" d="M770.15,1549.38c-5.09,5.67-1-3.72-4.1-1.83-1.22,1.77-.62,3.43-1.2,4.72,3.31-5.23,3.14,4.32,6.86-.57,1.43,2.66-.89,5.33-2.91,6.24-3.63-.34,0-2.9-1.55-5.22-1.41,2-.75,2.11-.38,3.94-3.18,2.25-3.21,8-7.57,6.9-1.53,2.39-.46,3.21-.55,5.38,1.88,2.34,4-1.8,6.42-.85-.33,0-1-.09-1.19-.47l2.15-1.26c-2.35.87-1.89-2.33-1.19-3.36.59-.67,1.74-2,2.15-1.25l-.5,1.4c1.9-.54,1.17-4.23,3.61-4.37.54.41.27,1.13.49,1.49,0-2.88,1.49-4.19,2.62-7.34l.84,3.34c-.59-4,4-7.24,7.87-8.68-.66-.06-1.45.22-1.53-.5,1.09-2.08,3.71-1.82,4.08,0-.19-3.29,7.35-4.38,7.2-8.74l-.94-20.32a4.55,4.55,0,0,1-.58,1.72c-2.71-1-3-.27-3.15-3.55-.55,2.48,1.51,3.39-.69,5.73,0-1.82-1.91-4.16-4.31-2.21-3.61,7.25-2,16.09-4.43,23.83-1.6-1.24-5.2,3.13-7.47,4.73-.78-2.27.23-4.14,1.42-5.93-1,.83-2.69,2.4-4,3.52Z"/><path class="cls-2" d="M778.05,1532a2.18,2.18,0,0,0-.69.16A.92.92,0,0,0,778.05,1532Z"/><path class="cls-2" d="M772.11,1542a.7.7,0,0,0-.13-.17l-.36.58Z"/><path class="cls-2" d="M785.43,1511.36c-.08-.73,0-1.08,0-1.81a7.92,7.92,0,0,1-.32,1.06C785,1511,785.11,1511.33,785.43,1511.36Z"/><path class="cls-2" d="M789,1512.79l.41.75c.21-.07.32-.16.49-.23C789.62,1513,789.32,1512.73,789,1512.79Z"/><path class="cls-2" d="M736.73,1557l-.21.83A.76.76,0,0,0,736.73,1557Z"/><path class="cls-2" d="M761.74,1552.93c1.73-2-1.89-2.35.76-5l-.91.64c1-2.8,4.77-5.71,6.95-8,.59,1.1,2.4-.33,3.44,1.25,1.24-1.85,2.49-3.66,1.93-5.81,1.41-.51,1.68-3.15,3.45-3.8-1.3-.29-.93-4.41-2.93-.5.13-.34-.2-.38-.08-.72-3,.79-1.91,3.43-3.53,5.09-1.76.19.35-2.87-.89-2.26-1.33,2.78-7.39,5.47-4.32,8.29-1.29,1.69-2.14,1.24-3.12,1.15.75,5.49-10.13,7.37-6.11,11.37.7-1,2.2-2.33,2.61-4.44Z"/><path class="cls-2" d="M782.48,1514.7a2.47,2.47,0,0,1-.41.33A4,4,0,0,0,782.48,1514.7Z"/><path class="cls-2" d="M817.75,1502.82l1.83,3.41c-3.85,5.07-6.2,5.94-10,9.93-.66-.07-.42-.77-.29-1.12-2.45,3-7.1,6.56-7.91,9.76-.89.85-4,2.29-3.92.65a3.12,3.12,0,0,1-1,1.77c-1.07-.82.82-1.35.08-2.16-.45.33-.78.29-.58.68-.15-1.46-3.86-2.54-.76-5.5,3.38,1-1.85,2.35,1.26,4.1,1-1,0-1.81-.23-2.2,1.34-1.22,1.91-.58,2.4,0-.26-1.25,2.4-1.8,1.94-3.63,2.32-2.67,1.68,2,3.29.32l-1.51-3.41,3.18-2.23c3.07-4.78-4.8-3.7-1.69-9.57.69,1.88,4.64,2.25,7.25.69-1.16,1.33-1.88,5.24-4.23,6.11,4.2-.33-2.9,3.35.48,4.39a6.24,6.24,0,0,1,3.85-5.07l-.25.71c1.81-1.28.43-5,3.56-6.19,1-1.14,1.48-.25,1.86.52C816.88,1503.56,817.21,1502.28,817.75,1502.82Zm-1.81,2.83-1.68,1.17C815,1506.89,815.53,1506.35,815.94,1505.65Z"/><path class="cls-2" d="M968.45,1296.46l.63-.24A1,1,0,0,0,968.45,1296.46Z"/><path class="cls-2" d="M840.71,1421.47l.91-.75A3.4,3.4,0,0,0,840.71,1421.47Z"/><path class="cls-2" d="M851.18,1394.86l.64-1.77A2.9,2.9,0,0,0,851.18,1394.86Z"/><path class="cls-2" d="M958.41,1306.09l-.06,0a1.8,1.8,0,0,1-.06.32Z"/><path class="cls-2" d="M894.17,1363.64a3.21,3.21,0,0,0,1.21-.13C895.1,1363.3,894.68,1363.37,894.17,1363.64Z"/><polygon class="cls-2" points="851.07 1395.2 851.19 1395.17 851.18 1394.86 851.07 1395.2"/><path class="cls-2" d="M825.38,1422.4c-.1.25-.2.47-.29.77A1.61,1.61,0,0,0,825.38,1422.4Z"/><path class="cls-2" d="M833.49,1428.23a2.57,2.57,0,0,0-.27.76Z"/><path class="cls-2" d="M800.11,1451.86l-.76,1.46A2.8,2.8,0,0,0,800.11,1451.86Z"/><path class="cls-2" d="M828.94,1429.54a3.4,3.4,0,0,0,.16.51A.38.38,0,0,0,828.94,1429.54Z"/><polygon class="cls-2" points="982.83 1296.78 982.77 1296.85 983.03 1297.17 982.83 1296.78"/><path class="cls-2" d="M982,1290.49l.78-1.17A2.68,2.68,0,0,0,982,1290.49Z"/><path class="cls-2" d="M914.29,1351.53c.65.06,1.77-.19,1.85.54C916.19,1351,914.91,1349.77,914.29,1351.53Z"/><path class="cls-2" d="M992.74,1317.61a5.41,5.41,0,0,1-.21-1.45C992.47,1316.93,992.4,1317.58,992.74,1317.61Z"/><path class="cls-2" d="M992.53,1316.16c0-.38.06-.78.05-1.16A4.94,4.94,0,0,0,992.53,1316.16Z"/><path class="cls-2" d="M927.13,1379.46a.82.82,0,0,0-.7,0C926.81,1379.74,927,1379.69,927.13,1379.46Z"/><path class="cls-2" d="M983.93,1288.92c-.41-.76,2.58-6.26-1.3-3-1.68-2,1.46-3.12,2-4.53-1.12.26-.82-1.51-1.68-2-.26.69-.3,1.78-1.21,2.42-1.19-.47-.57-2.22.67-2.83-2.1.17,0-2.89-2.34-2-2.82,4.07-4.6,7.17-4.37,12.25,1.53-2.39,3.19-5.13,5.54-6l.89,2.26c-3.21.42-3.3,2.58-5.24,4.22l4.87-3.17c3.19-.56,2.23,1,1,2.77C983.13,1289,983.56,1288.74,983.93,1288.92Z"/><path class="cls-2" d="M995,1305.52l.11,0a1,1,0,0,0,0-.33Z"/><path class="cls-2" d="M832.15,1483.7l.25.94C832.42,1484.08,832.32,1483.81,832.15,1483.7Z"/><path class="cls-2" d="M985,1300.24Z"/><path class="cls-2" d="M840.89,1475.25l.09.19A.84.84,0,0,0,840.89,1475.25Z"/><path class="cls-2" d="M809.28,1438.82a1.17,1.17,0,0,0-.27-.15C808.92,1438.94,809.08,1438.93,809.28,1438.82Z"/><path class="cls-2" d="M840.75,1475.1a1,1,0,0,1,.14.15A.41.41,0,0,0,840.75,1475.1Z"/><path class="cls-2" d="M876.9,1427.64a4.79,4.79,0,0,0-.87-.2C876.1,1427.67,876.35,1427.76,876.9,1427.64Z"/><path class="cls-2" d="M866.3,1433.52l-.33,0Z"/><path class="cls-2" d="M905.25,1346.35a4.17,4.17,0,0,0-.89,1.05A2.91,2.91,0,0,0,905.25,1346.35Z"/><path class="cls-2" d="M841,1475.44a3.37,3.37,0,0,1,.14,1A2.74,2.74,0,0,0,841,1475.44Z"/><path class="cls-2" d="M881.57,1407.11l-.08.43a2,2,0,0,1,.23-.07Z"/><path class="cls-2" d="M887.05,1404a3.47,3.47,0,0,0,.23.82c.89-2.19,4.43-4.29,3.09-6.3-.48.56-4.17,2.26-4.69.82-.66,1.48-3.42,1.88-3.72,2.73,2.68-.83,1.6,1.23,1,3-1.57.59-1.14-1.55-2.38-.94l-2.33,2.67,2.41-1.94.94,2.28.08-.38C884.59,1402.31,884.31,1408.79,887.05,1404Z"/><path class="cls-2" d="M887.28,1404.81a2.46,2.46,0,0,0-.2,1A.88.88,0,0,0,887.28,1404.81Z"/><path class="cls-2" d="M905,1392.49a4.87,4.87,0,0,0,.4-.9Z"/><path class="cls-2" d="M792.19,1500.06c.54.41,3.67-.75,2.39-2l-2.32,1.52Z"/><path class="cls-2" d="M938.93,1344.43a4.39,4.39,0,0,0-.75.68,3.26,3.26,0,0,0,.05.33C938.56,1345.48,938.81,1344.78,938.93,1344.43Z"/><path class="cls-2" d="M885.76,1398.08a1.79,1.79,0,0,0-.08,1.25A1.75,1.75,0,0,0,885.76,1398.08Z"/><path class="cls-2" d="M942,1347.25a4.62,4.62,0,0,1,2.18.56c.64-.61.43-1.7.83-2.56A4.71,4.71,0,0,1,942,1347.25Z"/><path class="cls-2" d="M945.05,1345.18l0,.07S945,1345.2,945.05,1345.18Z"/><path class="cls-2" d="M790.38,1500.8a8.29,8.29,0,0,1-.31.83l0-.63-1.86,1.09a3.57,3.57,0,0,1-.41.8.73.73,0,0,0-.09-.52l-.62.32c.1,2.46-1.9,6.32-2,7.92a9.59,9.59,0,0,1-2.59,4.09c.82-.76,1.62-2.07.6-2.47-2.36.86-5.27-.49-6.23,4.12l1.61-1.66-.94,6.43c-2.43.13.47-3.21,0-4.72-1.51,4.22-7.51,2.94-6.46,6.65-1.6-1.24-4.26-3.3-6-1.29,3,.28-.09,2.16,2.74,2.79.16,1.46-2.61,1.57-1.66,2.74l-.41-.76c-5.44.94-3,5.51-3.21,8-3.26,4.39-5.94,5.23-8.83,8.58-1.07-.83-4.53-2.6-5.68-1.25.69,1.86-1.55,5.28-.2,7.21,2.93-1.54.46-3.21,1.42-4.93,2.84.62,1.8,1.61,4.36,1.13-1.9.55-4.68,6.44-7.64,6.15l.25-.7c-3.14,1.16-7.61-2.51-8.75,3.53l-.71,2.71a4.86,4.86,0,0,0-.36-.64c-3,2.62-4.08,0-5.71,4.54.13-.35-.2-.38-.07-.73-2.69.82-2.62,4.45-3.57,6.17-2.18-.57-1.15-1.54-1.63-3-3.64,2.55-4.65,8.24-4.91,11.84l-2.81,1.18c.63-1.75.64-4.64-.55-5.11-.83,1.37,0,1.81-1.79,3.09a17.22,17.22,0,0,1-1.14-4.45c-4.68,1.73,2.38,3.84-2.56,3.38-1,1-.34,2.86.61,4l-3.22.43c1.14,1.56-1,3.89-2.33,5.56.4.77,2.63.26,2.67-.83.95,1.18-.13,3.25-1.17,4.24-3.19-2.47-6.24,7-8.36,2.47-3.65,5.46-9.77,12.11-11.6,16.28-1.77.2-3.84,2.18-4-.36-3.68,3.63-2.68,8.43-7.09,11.27-.66-.06,1.62-1.66.55-2.48-1.25,3.51-5.53,3.1-8.47,7.54a1.54,1.54,0,0,0,0-1.82c.53.41-.54,2.48-1.05,3.88-.78.3.38-1-.28-1.11-8.51,5.72-10.11,15-17.34,21.91a4,4,0,0,0,.22-5.42l-2,1.94c.16,1.7-1.33,3.18-1.88,5.12-.5-.2-1.49,0-1.31-1-5.81,2-2.72,9.52-8.5,13.32l2.06-9.58-2.75.11.84-4.27c-2.56.48-1.5,4.21-3.1,3-.08-.72.83-1.37.09-2.16-2,.9-1.09,2.08-1.91,3.45,0-5.79,5.77-11.41,8.13-15.16.26-.71.28,1.11.49,1.49,1.16-1.34,2.81-1.18,3.88-3.25-.24-2.2-1.64-.16-2.54.48-1-1.17-.5-1.5.21-2.51,1.6,1.23,5.25-4.22,8.08-3.59,4.18-5-4.39-3,.74-6.82l3,.29c1.37-3.85,3.65-8.33,7-10.93l-.57.67c.27,1.11,1.38.86,2,.91,2.93-1.53,3-5.5,6-5.22.84-4.27,3.83-9.78,5.86-13.58,2.92,1.37-2,5.6-1.89,8.15l2.65-2.64c-1.61,1.66-1.45,3.12-1.22,5.32,2.72-1.92,1.62-4.56,3.29-7.29.41.75,1.06.81,2.09-.19l-1.12-1.7c.14.09.36.09.76-.13l3.07-4.78c-1.44.22-2.71-1-3.74,0,1.18.47.49,1.49-.55,2.47,0-1.81-1.77.2-2.51-.58a33.49,33.49,0,0,0,5.33-6.39l1.74.88c2.27-1.59,3.59-4.36,5.29-5.28l.27,1.1c2.74-1.91,4.19-5,7.53-5.81.59-3.56,2-7.41,2.1-10.66-.77-2.59,8.21-3.93,8.19-8.64.34,0-.34,2.87-.51,4.3,1.82-1.28,1-4.61,3.23-3.32-4.09,2.87,1.59,1.23.52,3.31,1.61-1.66,3-3.7,3.19-5.13-2.64,2.64-1.51-3.4-3.42,0a13.19,13.19,0,0,1,5.89-8.86c.74.8,1.4.85,2.64.25L717,1544c1.36-1-.93,3.54,1.8,1.62.51-4.29,8.3-6.1,5.85-10.67,3.22-.42-2.08,4.87,2.37,3.83-.34,2.87-4,3.61-2.78,5.9,1.07-2.07,2,.92,3.08-.07l.68-2.83-.45.31c1.29-4.58,6.74-8.41,10.22-12.42,1.42-4.94,1.07-9.68,5.08-13.28-.09,2.16,4.16-2.15,3.65,2.15,2.68-.84,3.35-3.66,2.62-4.47-1.82,1.28-.79.3-2.48,1.22,0-1.81,2-3.79,3.48-4-.46.32-.13.35.08.73,2.47-1.22,0-1.82.92-3.53,1.72.88,3.31-2.6,5.2-3.14l-.07-3.62c.24,2.19,2.15-1.25,3.54-.4.42-2.13,0-4.7,2.25-6.3-.17,1.43,2.69-.84,4,.37,4.5-2.11,2.14-8.85,7-10.2.19.39.37,1.84,1.6,1.24.38-1.07,1.79-2.18,2.43-3.09v0c.31-.44.4-.84.11-1.15.12-2.53-.43-4.45,1.15-8.08-1.6-1.22-3.25,1.52-3.76,2.92l.57,2.22c-2.91-1.35-2,2.72-3.3,2.59-.93-4.07,4.2-7.93,5.37-12.17-3.62-.33-7.51,2.92-10.41,6.27l2.23-.52-1.61,1.66,3.08-.07c-1.81,1.28-2.77,3-4.26,4.31,1.62-1.66,4.2-.34,3,.27-3.22.43-1,2.8-2.49,4.11.91-.64,1.94-1.63,2.1-.16-4.45,1-4.09,2.88-8.41,3.55,2.66,2.06-2.9,3.35-1.35,5.67l1.36-1-1,3.89c-4.19.33.07-4-4.75-1.9-3.44,2.94-.88,5.35-3.22,8a8.18,8.18,0,0,1,2.31-7.38l-1.9.54c-.16-1.46,2.81-4.07,4.3-5.38-.72,3.91,1.57-.58,3.87-.37-1.15-1.55-2.42.14-1.75-2.69a15.19,15.19,0,0,1-4.34,3.57c5.13-3.87-.62-8.75,4.46-11.52-1.21,2.42,2.58,1.33,3.45,1.77a26.57,26.57,0,0,0,2.48-4.11l-2.59-1.32c1.46-3.13,6.38.23,7-4.43-.82-1.51-2.72,1.92-2.47,1.22,2.4-4.84,6.85-3,11.54-4.7-.4-.77-1.68-2-1.58-4.13.81,1.53,2.25,1.3,1.83,3.42,1.58-.57,2-2.7,2.49-4.11-2.93,1.54-.76-2.6-1-3.71,1.36-1,.81,1.52.44,2.57,1.24-.61,4.07,0,2.85-2.26,1.27,1.2.64,5.85-.78,7.88l1.37-1c-.18,1.43-.5,1.4-1.85,2.36a3.49,3.49,0,0,1,3.64,2.14c-.33,0-.21-.37-.53-.41-1.24.61-1.62,1.66-.75,2.11.82,2.49,2.33-.25,3.78,0l1.09-1.75-.47-10.16c1.45-2.67,3.65-2.32,6-3l-1-1.86c2-1.64,4.1-2.87,4.74.09-.54-.42-.66-.06-1.12.25a1.4,1.4,0,0,1,.19.7l.16.34c1.46-2.38,2.37-3.87,2.43-4-1.21,5.33,2.41,2.76,4.38,5.84l2.48-4.11c-2.8,1.19-1.26-1.2-.89-2.25,1.61,1.23,2.65-2.66,4-3.61l.2.37c1.56-.57,3.31-2.58,4.26-4.29-.53-.42-1.13-4.45-1.7-6.68-2.83,1.75-2-.17-3.1-.88.32-.15.77-.56.63-.79-.07-.73-1-.1-1.51-.51-1.78,3.1-4.11,5.78-3.13,8.75,1.65.17.43-2.13,1.86-2.36.12,2.55-1.7,3.83-3.77,5.81l-1.85-.54-1.4,2.68c.23-1.48-1.52-2.22.38-4.58-1.39-.86-1.87,2.36-3.55,3.29l.9,2.25c-.62-1.14-3.6,1.48-2.8-1.71l2-4.52-2-.19,2.44-3,.17,1.47c3.32-5.48,4.43,1.86,7-4.41-.52-3.31.76-5,4-7.22-1.54,2.38,1.14,1.55,1.5,3.39,2.81-1.19,1.91-3.44,2.21-5.23,1.52.51,2.7,1,.76,2.61,1.89,2.35,2-2.71,4.33-.69,5.87-6-2.25-11.78,7.4-15.94l.61,1.14c3.32-5.48,6.91-7,10.3-11.7l5.44-1c-.37,1.06-.64,4.65,1.33,4.84-3.81-.72-4.69,1.72-7.58,2.18.42.76,1.52.51,2.19.57-1,1-2.56.48-3.51,2.21.53.4,2.55-.49,1.72.88l-3.21.42c-1.79,3.09,2.11,4.53-1.39,6.75-.71-1.78-1.41-4.66-.59-6.07-1.58,1,1-2.48-.94-2,0,3.72-2.42,3.16-3.78,6.82,0-.56-.24-1,.26-1.72l-4.42,2.84c2,.18-1.83,4.17.1,5.44,4.55-3.19,2.44-3,7.78-6.51-.9,1.6-.89,4.84-.16,7.09a.47.47,0,0,0-.38.1c.9,2.26,2,2,4.75,4.78.07-4,3-3.69,4.28-7.2-1.06-2-3.3-.56-4.1,1l1.1-3.09.28,1.11,5.84-4.78c-.93,1.08-.4,2.3-.27,3.49a7.3,7.3,0,0,1,3-1.18c-1.59-1.3-2.51-2.42-1.81-3.06,3.77-3.06,7-3.65,9.88-3.25l.29-.5c-2-.91-.21-5.09-.66-7.66,1.47,1.59,2.68-.83,4.45-1-1.23-2.29-4.35-4-7-4.27-.72,3.91.32,2.92,1.49,6.29l-2.2,5.22-.57-2.23c-2.47,1.22-2.41,4.85-4.09,2.88-.23-2.19,2.13-3.06,1.88-5.25l-1.89.55c.38-4,2.83.63,4.21-3.22-2.51-.61.12-.36.21-2.51-2-.19-4.17,5-6,1.6.22-2.51,7.66-1.46,6.86-5.88l.2.39c3-2.31,2.44-4.74,2.5-6.68,2-.27,2.35-3,3.48-4.34l.73.8,1.42-2.05c.56,2.22-2.07,2-3.36,3.67l1.61,1.24c-3.4,0-2,3.71-2.09,6.27.7-3.16,5.81-5.08,3.49-8.32l2.63.25.06-1.09c2,.19,2.74,2.8,1.33,4.84-.66-.06-1-.09-1.19-.48-.17,1.44.19,3.28-2.08,4.88l.29-1.79c-2.52,2.3-4.17,5-3.61,7.26a75.57,75.57,0,0,0,10.86-9.47c-2.23-4.2-2.89-7.14-5.37-10.64,1.65-2.74,4.23-6.12,7.23-6.92l.41.77a4.66,4.66,0,0,0,2.31-2.69c1.77-.19.9,2.26,2,2l2.16-4.14c1.15,1.55-1.5,4.19-2.66,5.54.12-.35.38-1,0-1.08-2,.9-2.45,5.92-5,4.59-.37,1,0-2.89-2.51-.59-2.35.87-1.13,3.15-.71,3.91.74.8,3.59-1.47,3.62.34,1.16-1.34.68-2.83,3-3.69-1.15,1.33-1.3,4.57-3.15,4-1,3.89,2.9,7.14,4.26,6.19-1.4-.86,3.12-5.87-1.58-4.13,0-2.9,2.65-5.55,3.65-8.34l.2.37,2-2.71c.07.74-.3,1.79.43,2.58l1.23-5.31c-.47,3.21,2.09-.18,3.54-.39-.82-1.53-.4-3.66-2.29-3.11-2.23.51-.17,1.43-1.34,2.76l-.06-3.61.33,0-.44-2.58c2.52-2.29,2.45,4.58,4.07,0l-2.46-1.67c3.89-3.25,10.8-5.5,12.39-9,.47,1.87,2,4.07,4.12,4.24-1.45.73-3.57,3-4.95,4.73-.66-.06-.47-4.39,1.68-5.63-4.19-2.57-2.25,6.3-5.86,3.06-5.53,3.11.05,6.52-5.63,8.16,1.47,1.58-.31,1.79.85,3.34,3.57,1.42,4.83-5,8.09-6.48-.13.35-.37,1-.17,1.43a6.05,6.05,0,0,0,3.15-4l-.33,0c.59-3.56,2.42-.13,4.32-.68.25-.7,2.39-2,1-2.8l3.67-.75-1.81-1.61c1.15-1.35,2.55-.48,2.66-2.65l-1.48-1.59-3.64,2.56c1.08-2.07-1-1.9.4-4-.27,3.6,2.21-.51,3.82.73l.41-2.13.09.73c1.78-.21.62-1.75,2-2.71-2.23.51-4.2.32-4.87,3.16a21.78,21.78,0,0,1,2.57-6.27c.71-2,2.8-1.74,4.23-2.81-1.8,3,5.46,3.81-.46,7.5-.2-.38.25-.7.58-.67-2.59-1.32-2.77,3-3.07,4.78,1.39.86.57,2.23,3.05,1-1.33-.12-.94-4.07,1.75-4.89l2.08,2.71,2.85-2.26-.12.35c2.51.6,2.44-3,5.12-3.86.42-2.14,6-6.32,1.39-6.75,3.09-.07,2.57-3.37,4-5.43l-3.14,1.17c.84-4.27,1.21-2.42.53-7.2.86.46,1.85.55,2.13,1.65,3.55-3.28,9.13-7.46,9.18-11.44,2.52-2.29,5.73.17,8-4.31.38-1-2.79-1.71.14-3.25.33,0-.38,3.94,1.93,1.27-.06-3.63,5.2-3.13,5.92-7,1.89-.55,3.76-2.91,4.78-1-2.27,1.59-4.71,4.63-4.43,5.75-.61-1.16-2.23.5-1.48-1.6-4,1.8-1,2.8-4.38,4.66.4.76,3,.28,3-.81,2,2-4.22,6.12.5,6.21,3-2.62-.34-7.63,4.2-7.94.23,2.19-2.32,2.68-1.47,6l2.81-1.18v-2.89l.21.38c5.36-1.67,1.22-5.31,3.38-9.46-3.21.43-3-3.9-5.25-3.38,1.86-2.36,3.67-3.63,5.68-1.64-2.33,5.57,1.89,2.34.22,8,1.31.13,2,3.8,4.44,1.86,1-3.87-2.39-1-.6-4a1,1,0,0,1,.86.45c.09-2.17,1.69-.93,1.9-3.44l.08.73c2.89-.46.47-3.21,3.23-3.32-2.06-.92-.24-2.19-.27-4-2,.89-4.94-.45-7.71,2.54.82,1.53,1.68,2,1.06,3.72l1.73-2a16.26,16.26,0,0,0-.36,1.82l-2.41,1.18c1.45-3.11-.85-3.33-1.09-5.52,2.61-1.57,1.41-2,3.11-3,1.58,1.86,7-1.06,10.49-2.34-.44.3-.89.82-1.19,1-.67,2.83,2.64.24,3.18.66l.41-2.14c-.12.36-.05,1.09.74.8,1.41-2-.4-3.66,1-5.7,1.07.83,1,3.72,2.62,3.15,1.19.46,4.57,1.51,6-1.61-.21-.53.19-1.32.72-2.17,0,.15-.13.31-.1.42l2.55-.48c.32,2.91-3.39,1.84-3.07,4.77l1.42,1.65a6.29,6.29,0,0,0-1.56,4.49c1.8-1.29,1.73-2,3.14-4,1.21.73.71,2.67.64,3l-.61-1.14c-3.34.78-1.62,4.55-4.48,6.81-.45.33-.32,0-.53-.4-.59,3.56-4.67,3.54-4.73,7.52l-.15-1.47c-.72,2-1.91,6.22-3.14,10.36l.58.62c.66.07-.38,1-1.16,1.34h0c-.61,2.07-1.24,4-1.8,5.59a3.19,3.19,0,0,0,2-.49c-.27-1.12,2.77-3,.84-4.26,2.11-.17,2.57-3.39,4-3.61-2.55.49-.44-2.57-1.05-3.72,1.52.5,2.19-2.33,3.34-.77.65.06-1.65-.15-1.49,1.31-.34,2.86,4-1.8,3.24,1.39,1.59-3.48,5.34-6.39,6.72-10.23l-2,.89c1.36-1,3.81-4,4.67-3.54-.71,1-1.73,2-2.57,3.38,1.47,1.59,2.65-2.65,3.71-1.82l.69-5.73-1.49,1.31c0-1.82,4-3.61,6.41-5.56.84,3.34-3.23,3.32-4.69,6.44-.87,2.45,3,1,2,3.08a2,2,0,0,0,1.84-2l1-.24c.49,3.31-3.09,6-3.55,9.74a2.38,2.38,0,0,0-.24-1,9.18,9.18,0,0,0-5,4.59c1.44-.23,1.36-1,1.62-1.65.52.41-.76,2.09-.8,3.17,2-.9,1.39.86,2.63.25-.5,1.41-1.41,2-2.77,3-1.32-.13-.49-1.49-1.55-2.32-.63,1.76-3.43,0-4.1,2.88,2.73-1.92,1.43,2.66,1.26,4.1l.46-.33c.36,1.84-.22,2.52-1.74,2,.5-1.41,1.74-2,.35-2.87a7.25,7.25,0,0,0-1.54,2.4l-.16-1.46-2.9,3.35a33.57,33.57,0,0,0,2.08,5.61c-1.65-.15-1.95,1.64-2.31,2.69l-.08-.74c-2.23.52-4.6,4.28-4,5.42-1.77.2,1.41-12.53-4.76-4.78-2.65,2.64,1.14,4.44.59,6.92a.83.83,0,0,0-.53-.41c-1.37,1-.42,2.14-.93,3.54,1.12-.27,2.15-1.25,2.07-2,.82,1.52-2.52,2.3-2.49,4.11-.64-3-2.93,1.54-3-.28-3.46,1.13-4.51,5-4.39,7.55-3.83-.72-2.45,3-6,4.51.46-.33.83-1.37,1.62-1.67,0-2.88-3.39,1.86-2.47-1.67-.25.7.73.8,1,.08.69-1,.87-2.44,0-2.89l-3.34.79.38-1.07-4.9,1.36c.2.37.85.44,1.18.47-4.41,2.85-7.61,8-11,10.91,3.44,4.66-6.14,9.56-6.24,14.62-.47-1.85-2.13-4.29-3.4-4.71.4-.74,0-3.55,1.59-4.51.86.44,3.21-.42,2.91,1.36,3.15-4-2.26-1.3-2.7-3.87-3.6,4.37-3.58,9.08-5.15,12.54l-.54-.41-1,2.8c1.83-1.28,4,1.1,1.24,2.29l.12-.36c-2.1.17-3.35,3.68-5.29,5.31l.11,2.53c-1.94,1.63-4.48-.77-6.54-1.68-3,2.61-2.58,6.25-3.38,9.44-2-.18-6.43,3.74-5.51.21-1.58,3.47,4.69,8.77-2.85,9.87l.09-2.17c-3.93,4.35-7.79,12.3-10.8,13.11-2.19-5.28-9,1.33-13.37-1.61,1,.63-.24,2.46,0,3.13-.77-.08-1.75.06-1.6,1.42,2.35-.87,2.65,5,4.27.39.94,4.08.88,8-2.68,11.34l-1.47-1.59,3.18-2.23c-1.4-.86.08-2.16.14-3.25-5.91,4.15-2.91-4.25-7.88,1.08.49,1.49.41.75-.54,2.48.58-.68-.36-1.85-1.4-.86l.24,2.2c-4.34-.77,1.33-4.63-2-4.9.8-3.19,3.61-7.26,1-8.58-4,2.52.72,6.58-3.57,9.07l-1.19-.47c-.64,1.76.51,3.3.67,4.76-.54-.41-1.19-.46-2.1.16-.06,4-1,5.7-.75,9.71,3.37-6.55,5.74-2.72,9.43-9.25-.17,1.43-3.31,5.49-1.43,7.83l-1.48-1.59c-.87,2.45-1.75,4.9-4.35,6.47l.42-2.13c-1.71,3.83-6.92,2.25-6.57,7a4.3,4.3,0,0,0,1.73-2c-.75,2.1-2.69,3.73-4.5,5l-.69,5.72c-.73-.78-2.81,1.19-3-1-3.47,1.13-2.29,4.5-3.24,6.2-4,.72,1.33-2.76-.55-5.11-4,2.53-6.78,6.6-7.25,9.81,1-.35,1.56-.4,1.89,0-.58-.39-1.77,1.05-2.51,1.76l.48,1.5c-1.89.54-2.3-.23-2-2-1.36,1-.84,4.27-3.47,4,.8-3.18,4.38-4.65,4.67-6.43-3.18,5.12-7.21,1.12-11.22,7.63-.54-.41-.57-2.23-1.6-1.23-2,2.7,1.42,2.66,1.79,4.5,1.2-2.42,2.65-2.65,5-2.43l.32,1.29c-.49-.35-1.65.76-2.39.68l1.34,1.94c-1.67-2-4.88-1.54-5.63.56,2.76-.11,2.3.21,4.76,1.9-.05,4-4.19.32-4.38,4.65-.41-.76,1.12-3.15-1-1.91-1.49,1.33.11,2.56-.38,4-.45-2.58-1.85-3.43-2.48-6.39,2.31-2.68,1-1,2.81-4.07l-3.35.77c1.88-2.36-.18-3.27-.59-4-5.16,2-.43,5-3.16,6.94-.09,2.16,2.4-2,1.73.89-2.4,1.94.49,1.48-1.3,4.57l-.29-1.1c-1.64-.16-1.27,1.69-2,2.7-.49,1.4,6.33,4.21,2.52,8.2a3.49,3.49,0,0,0-.6-1.13l-8.88-16.57a98.1,98.1,0,0,1-14.29,11.85c-3.57-1.42,1.23-5.31-.17-6.16l2.6-1.56c.94,1.17-4.06,4.68-.31,4.67,2.94-4.43,5.83-4.88,7.16-10.55-3.57-1.42-4.17,5-8.38,5.37a6,6,0,0,0,2.09-3l-7.92,5.78.06,1.15a33.6,33.6,0,0,1,3.5-2.32c-2.39,1.94-2.85,5.15-1.18,7.13l.45-.32-.22,1.35ZM648.75,1640.63a2.67,2.67,0,0,0-.32-1C648.62,1640,648.88,1640.11,648.75,1640.63Zm178.19-188.35c-3.17,2.62-6.6,5-9.61,7.58,8.64-1.38,14.9-2.16,6.42,6.12l-.29.81a14.63,14.63,0,0,0,5-4.51c.17-2.71.14-12-.32-12.42-1.52-.51-1.17,1.34-2.4,2Zm8.09,4c2.05-1.23.87-1.66.41-2.63l-1.46,2A1,1,0,0,1,835,1456.29Zm-.4-3.26a.89.89,0,0,1-.58.28Zm-32.94,30.9.13-.21-1.36,1A2.52,2.52,0,0,0,801.69,1483.93Zm5.1-1.55-.92-1.71-1.26.95A3.18,3.18,0,0,0,806.79,1482.38Zm15.06-6.33c-.9-2.25,1.3-4.58-.38-6.55-.32-.61-1-.32-1.66.06l-2.07,1.75a1.78,1.78,0,0,1,.37,1.13c.89-.43,1.79-.42,2.64,1-4.15-.74.2,3.28-2.28,4.49C819.16,1479.78,821.8,1477.13,821.85,1476.05Zm137.93-146.48c.21.1.8.34,1.56.6l-.41,2.2c-2.72,1.92-7.21,1.14-7.06,5.49-1.54.41-3.26-.27-4.75-.76a8.13,8.13,0,0,1,1.62-1C953.34,1327,957.28,1336.57,959.78,1329.57Zm-30,23.41a1,1,0,0,0-.08-.74c-1.87,8.54-5.2,13.78-8.14,16.43,1.87.8,5.42-.68,7.16-1.31l.45,2.57-1.85-.54-.47,3.21c1.53.51,2.8-1.18,4.58-1.38-.2-.38,1.22-5.31,1.18-7.13l-3.58,1.48c1.1-.26,4.13-4,5.08-5.67-.73-.79-4.2.32-2.85,2.26-1.39-.85,1.25-3.51-1.63-3.05.79-3.18,5-5.32,7-6.22l2.14,1.65c2.35-.86-1.18-3.37,1.82-4.18-2,2.72,2.47,1.69.74,3.69,1.31.12,2,2,3.74,0-.93-4.06,3.54-.39,2.82-4.07,1.76-.2.44,2.56,2.72,1,.91-3.53-.16-4.35-1.84-6.32-2.59,1.56,0,4.71-2.12,6l.28-6.5a2.24,2.24,0,0,0-1.84,1.11,4.77,4.77,0,0,0,.48-3c-.07-.64-.12-1.21-.14-1.71-1.94,1.89-3.69,3.54-4.76,3.06l-.62-1.15c-1.49-.14-2,1.6-1.83,2.76-1.62,1.8-2.11,4.74-3.63,4l-.15-1.46A41.6,41.6,0,0,1,929.76,1353Zm-71.32,66.84c4.51,2,8.77,3.44,14.19-3.07l-.25.69c5-1,3.2-8.53,9.11-9.9-.56,3-.58,2.78.25,7.54l1-2.82c1.23,2.3,2.23-.51,3.71-1.82l.86,3.33c-1.45.24-3.84,2.18-3.3,2.6.24-.71-5.52.2-6.73,2.62,1.6,1.24,4.87-3.16,5.47.87.54-2.48,2.14-1.24,3.23-3.31-.55,2.48,1.55,2.31,1.46,4.48l2.11-3.07c.54.41-2.73,4.81,1.14,4.45.3-1.78,4-3.6,2.53-5.18l.53.41c2.28-1.6-1.3-3,2-4.52a1.43,1.43,0,0,0-2.43.13c-.38,1,.56,2.22-.72,3.91-1.86-.53,2-1.63-1.1-2.63-1.52-.5-3.07,4.77-4.25,1.42l2.27-1.61c-1.48-1.58,0-2.89-1.25-4.09.62-1.75,3.46-1.13,3.35-3.67-.49-1.49-3.2-2.47-.39-3.66,3.82.72,8-4.31,9.41-6.36l.54-2.48c-1.07-.82-2.77,3-3,.81l2-2.71.41.77c.91-.65,1.08-2.08,1.46-3.13.36,1.84-1.78,3.09.14,4.35,1.43-.78,2.19-.36,2.9-1.68-.11.34-.14.68.11.88,2.93-1.54.38-3.94.43-5,.19-4.32-4.19.33-5.54-1.61l5.71-7.42c-.05,1.07-.1,2.15.77,2.6,2.35-.86,1.27,1.2,3.46-1.12-2.34-2,1.5-4.21,1.84-7.06,1.65.15,2,.18.37,1.83,1.6,1.24,3.25-1.49,4.16-2.14.1-.8.67-1.78.85-2.58-1.36-.06-2-1.23-1.15-3.24l-.21-.38c-2.72,1.92-7.88,4-7.89,6.86l-.29-1.11c-3.91,1.45-3.32,8.37-7.23,6.92-.94-1.17-.78.3-2.26-1.29l-.79,3.18-.28-1.11-3,3.69-.19-.37c-.23,3-.35,5.37-.44,7.29.66.67,1,.78.93,1.8a2.34,2.34,0,0,1-1,1.59h0c-1,.63-2.53.22-3.94.83l3-3.27a3.68,3.68,0,0,0-4.64-1.58c.58-.67,0-1.81-.94-1.17.21.38-1.34,2.77.31,2.92-2.56,3.38-10.35,5.19-12.73,11.84,2-4.53-4.12,1.06-1-3-4.32.69-.38,4-3.23,6.21-.87-.43,1.48-1.3.79-3.18-5,3.51-4.28,10.09-9,13.64l-1.58-1.24ZM852,1429.7l-1.94,2.89.28-.19-1.25,3.51c2-.91,4.53-.31,3.2,2.46-.41-.76-1.72-.88-1.35-1.94-2.22.52-6.06,2.7-3.14,4.06.63-4.66,3.32,2.11,3.91-1.45.27,2.5-1.46,3-1.89,4.64-.07-2.26-2.89-2.39-5.09-1.32-.37,1.06-2.64,2.66-3.27,4.41,1.73.89,1.44,2.67,3.71,1.07a4.54,4.54,0,0,1-3.11,3c.27-.71,1-1.72.43-2.14-2-.41-2.87.57-3.9.56l-1,1.43a1.75,1.75,0,0,1,.75.16l-.22,2.51c1.21-2.42,1.45-.23,2.19.56-1.48-1.58-1.38,1-2,1.63l3,.28c.15,1.46-3.47,1.12-1.54,2.38,3.51-2.2,4.34-3.57,6.45-6.62l-2.3-.22c2-3.8,3.94.37,7.16-2.95.23-2.51,4.86-5,2.64-7.35.28,1.11,4.08,0,4.17-2.15-.85-3.33,2.62-7.35.53-7.18-1,1-1.26,3.5-3.44,2.94l1.54-2.4-2.44.14C855.19,1432.14,854,1431.08,852,1429.7Zm-56.93,30.87-.1,0,.09-.07Z"/><path class="cls-2" d="M984.19,1295.83c0-1.09,1.53-2.39.14-3.24C985.59,1293.79,982,1295.26,984.19,1295.83Z"/><path class="cls-2" d="M987.07,1295.38c-.2-.39-.74-.8-.15-1.47l-1.42,2Z"/><path class="cls-2" d="M997.24,1302.11c0-1.81,0-2.89,1.51-4.2,3.53,2.5-1.45,3.12.71,6.58,2.85-2.27,1-5.69,2.88-8C1000,1296.22,995,1299.73,997.24,1302.11Z"/><polygon class="cls-2" points="999.9 1307.07 1000.65 1304.97 1000.34 1304.93 999.59 1307.03 999.9 1307.07"/><path class="cls-2" d="M942.87,1311.5c-1.06-.82-1,1-1.28,1.7C942,1312.87,942.83,1312.58,942.87,1311.5Z"/><path class="cls-2" d="M661.39,1589.15l-10,11.73C654.3,1597.53,657.08,1594.53,661.39,1589.15Z"/><path class="cls-2" d="M912.88,1353.57c2-3.8,1.71-6.72,4.28-10.09-5.81,2-2.22,8.11-7.45,9.43Z"/><path class="cls-2" d="M906.41,1345c2.26,1.3-.18,4.32,1.54,5.21,1.54-2.4-.76-2.61,1.18-4.24Z"/><polygon class="cls-2" points="948.91 1361.28 948.94 1363.09 949.32 1362.04 948.91 1361.28"/><polygon class="cls-2" points="894.66 1359.82 894.58 1359.1 892.56 1359.99 894.66 1359.82"/><path class="cls-2" d="M894.5,1358.37l.08.73Z"/><polygon class="cls-2" points="951.56 1366.23 953.26 1365.3 953.1 1363.84 951.56 1366.23"/><path class="cls-2" d="M930.44,1368.23l.61-1.74C930.93,1366.83,928.59,1367.7,930.44,1368.23Z"/><polygon class="cls-2" points="884.95 1367.96 884.2 1370.07 884.52 1370.1 885.27 1368 884.95 1367.96"/><path class="cls-2" d="M926.09,1382.31c2.17.56-2,2.71.89,2.25C928.26,1382.87,927,1382.76,926.09,1382.31Z"/><path class="cls-2" d="M899.56,1390.22a1.27,1.27,0,0,0-.39.79A6.31,6.31,0,0,0,899.56,1390.22Z"/><path class="cls-2" d="M899.56,1390.22c.63-.63,1.77-.72,1.81-1.54C900,1388.83,899.92,1389.34,899.56,1390.22Z"/><path class="cls-2" d="M892.72,1397.64l.67-.46c.09,1.25.26.87.24-.18.55-.65.09-1-.13-1.41l-.16-.9v1C892.4,1396.59,891.9,1397.22,892.72,1397.64Z"/><path class="cls-2" d="M843.22,1401c2.6-1.57,3.39-1.86,4.33-.68,2.32-1.64.2-3.16,1-4.78C846.48,1398,845.53,1397.92,843.22,1401Z"/><path class="cls-2" d="M848.52,1395.52l.7-.86A2.5,2.5,0,0,0,848.52,1395.52Z"/><polygon class="cls-2" points="912.63 1400.95 912.94 1403.87 913.2 1403.17 912.63 1400.95"/><path class="cls-2" d="M839.59,1403.53c.45-.32,1-1,1.69-.93C840.34,1401.43,839.14,1403.85,839.59,1403.53Z"/><path class="cls-2" d="M868.35,1416.35c.86.44,1.81-1.28,2.6-1.57C870,1415.42,867.46,1414.09,868.35,1416.35Z"/><path class="cls-2" d="M837.94,1413.87a1.88,1.88,0,0,1,2.38,1C840.37,1413.73,839.27,1411.1,837.94,1413.87Z"/><polygon class="cls-2" points="864.34 1419.96 865 1420.02 865.75 1417.91 864.34 1419.96"/><path class="cls-2" d="M885,1430.58c.35-2.87-5.59-.52-3.88-4.35-4.9,2.22,2.06,1.52-.79,3.94C882.33,1429.06,884.69,1429.91,885,1430.58Z"/><path class="cls-2" d="M880.36,1430.17a3.63,3.63,0,0,0-.84.62A10.31,10.31,0,0,0,880.36,1430.17Z"/><path class="cls-2" d="M849.73,1444.65a3.52,3.52,0,0,0,.12-1A3.18,3.18,0,0,0,849.73,1444.65Z"/><path class="cls-2" d="M873,1439.58l.52-4.3c-.36,2.87-4.49,6.82-2.35,8.46a5,5,0,0,0,2.61-4.45Z"/><path class="cls-2" d="M811.13,1432.72l.3-1.79-1.52,1.07C810.56,1431.92,811.27,1434,811.13,1432.72Z"/><path class="cls-2" d="M809.62,1432.21l.29-.21A.43.43,0,0,0,809.62,1432.21Z"/><path class="cls-2" d="M853.38,1439.2a4.67,4.67,0,0,0,1.87-2.36C854.59,1436.77,852.32,1438.37,853.38,1439.2Z"/><polygon class="cls-2" points="806.53 1442.77 807.93 1440.73 806.19 1442.74 806.53 1442.77"/><polygon class="cls-2" points="795.3 1447.52 794.65 1447.46 793.9 1449.56 794.55 1449.61 795.3 1447.52"/><path class="cls-2" d="M842.86,1474.39c1.37-1,.58-3.56-.08-3.62l-2.19,2.32c2.06.93.59-.66,2.27-1.59Z"/><path class="cls-2" d="M738.47,1509.5c-.48-1.49,2.56-3.37,3.63-2.55.08.74-.88,2.46.57,2.23l-.48-4.39c4.12-1.06,1.22,5.18.79,7.32,3-2.32,2.16-4.71,5-7.5a5.06,5.06,0,0,1-3.15.43c-1.8-1.62,1.58-3.48,3.33-5.48-1.94.44-1.87-.87-1.67-2.41a.94.94,0,0,0,.07-.61l.05-.53-.22.23a2,2,0,0,0-.94-.56c-1.07,2.07-3.71,1.83-4.75,2.82,3.79,1.8-2.81,4.08-3.23,6.21l-1.2,1.74-.55.56c-.41-.21-.64-.74-.35-2.13-.15,1.24-2.68,3.38-1.58,4.06l-5.3,5.34a2,2,0,0,1-.91,0,.68.68,0,0,0,.27.65l-23.08,23.29c1.36-.92,3-1.26,4.48-2.13.07,3.62,2.27-1.59,3.5.68a3.44,3.44,0,0,1-2.65,2.66c.62,1.14,2.39.94,3.33,2.11,4-1.79.27-6.49,3.78-8.69.95,1.17,1,3,2.72,1l-.25.7c1.82-4.18,4.73.08,3.72-4.72l1.48,1.59c.21-2.52,2.86-5.16,4.14-6.85l.21.38c2.45-5.92,2-2.72,6-8.13l-.39,4c2.36-.88.8-3.19,2.16-4.15.21.38,1.6,1.23.77,2.61l3-8.41C740.94,1508.29,739.33,1510,738.47,1509.5Z"/><path class="cls-2" d="M748,1504.61a3.72,3.72,0,0,0,1.11-1A10.28,10.28,0,0,0,748,1504.61Z"/><path class="cls-2" d="M703.14,1539.86l1.62-1.64A5.51,5.51,0,0,0,703.14,1539.86Z"/><path class="cls-2" d="M752.83,1493.12c-1.78.19-.36-1.85-.78-2.61l-3.52,3.55c.61.58.91,1.59,1.52,2.06Z"/><path class="cls-2" d="M746.4,1494a3.63,3.63,0,0,1,.2,2l1.93-2C748.08,1493.63,747.46,1493.45,746.4,1494Z"/><polygon class="cls-2" points="778.12 1525.15 777.54 1525.83 777.04 1527.23 778.12 1525.15"/><path class="cls-2" d="M765.71,1532.31c1.64.15,2.39-1.94,2.64-2.64C766.73,1531.32,767.11,1530.28,765.71,1532.31Z"/><polygon class="cls-2" points="777.28 1539.91 776.2 1541.98 776.52 1542.01 777.28 1539.91"/><path class="cls-2" d="M697.06,1557.9l-.68.87A3.34,3.34,0,0,0,697.06,1557.9Z"/><path class="cls-2" d="M709.18,1543c-5.49,2,1-3.89-2.33-4.91l-1.33,2.76-.41-.76-2.32,2.68c1.53.5,2,.18,2.92,1.36-3.76,2.91-2.31-.22-6.09.88l-3.55,3.9v-.61a.91.91,0,0,0-.24.88l-11.93,13.17c-1.45,3.12,3.17.66,3,3.9,2.65-2.64,7.72-5.43,5.84-7.78.2.39.61,1.15,1.39.86L694,1556l-2,.9c-.18-3.27,5.19-7.84,7.16-7.66-2.24,3.41,1.26,4.09-3.82,6.88.71.36,2.37.59,1.78,1.77C701.07,1552.68,706.18,1549.53,709.18,1543Z"/><path class="cls-2" d="M663.76,1590.1l-.15-.23C663.62,1590.05,663.67,1590.16,663.76,1590.1Z"/><path class="cls-2" d="M665.57,1588.81l.19-4.32-3.35,3.67,1.2,1.71c-.06-.68.44-2.65,1.48-2.55Z"/><path class="cls-2" d="M667.14,1580.64c-1.21,2.42.6,4,2.37,3.83-.88,2.46-2.72-1-2.06,2,1.26,1.2,2.6-1.57,2.84-2.27Z"/><polygon class="cls-2" points="681.44 1568.22 681.63 1569.44 683.08 1568.38 681.44 1568.22"/><path class="cls-2" d="M681.63,1569.44l-1.44,1a6.17,6.17,0,0,0,1.78,1Z"/><path class="cls-2" d="M676.42,1573.26a15.39,15.39,0,0,0-2.09,1.53Z"/><path class="cls-2" d="M678.29,1572.27l-.27-.18-1.6,1.17C677.07,1572.88,677.67,1572.58,678.29,1572.27Z"/><path class="cls-2" d="M680.19,1570.49c-1.39-1-2.89-2-4.36.11l2.19,1.49Z"/><polygon class="cls-2" points="763.97 1549.52 763.22 1551.62 763.56 1551.65 764.31 1549.55 763.97 1549.52"/><path class="cls-2" d="M754.64,1556.61a7.37,7.37,0,0,0-.21,1.52A2.19,2.19,0,0,0,754.64,1556.61Z"/><path class="cls-2" d="M756.67,1570.91c-2.88.46.73-3.9-2.91-1.35-1.4-.85-1.38-3.75.64-4.65.94,1.18-.75,2.1,1.22,2.29-.24-2.2,1-1.73-1-3,.65-2.62-.3-3.94-.22-6.08-1.28,2.67-7.06,5.16-7.54,9.7.53,3.29,4,5.08,6.72,7.86C754.47,1576.14,758.36,1572.88,756.67,1570.91Z"/><path class="cls-2" d="M762.07,1571.05a2.66,2.66,0,0,0,1.28-1.68C762.29,1568.54,762.65,1570.39,762.07,1571.05Z"/><path class="cls-2" d="M723.45,1567.92c.24.54-.68,2.43.3,2.81l1.64-2.62C724.82,1568.54,724.17,1568.24,723.45,1567.92Z"/><path class="cls-2" d="M726.11,1567l-.72,1.14A2.35,2.35,0,0,0,726.11,1567Z"/><path class="cls-2" d="M723.1,1567.78l.35.14A.27.27,0,0,0,723.1,1567.78Z"/><path class="cls-2" d="M670.56,1577.7c-.73-.79-1.23.61-1.48,1.31C669.54,1578.69,670.33,1578.4,670.56,1577.7Z"/><path class="cls-2" d="M637.75,1616.25l-1.44.22A1.76,1.76,0,0,0,637.75,1616.25Z"/><path class="cls-2" d="M645.47,1649.9a1.24,1.24,0,0,1,.21.55A1,1,0,0,0,645.47,1649.9Z"/><path class="cls-2" d="M645.68,1650.45c.06,1.21-2.69,2-2.37,3.58l-.21-.38-.62,1.75C643.51,1654.21,646,1652,645.68,1650.45Z"/><line class="cls-2" x1="1562.32" y1="1030.75" x2="1942.93" y2="652.69"/><path class="cls-2" d="M1926.33,654.73c.7-1,2.35-.86,2.43-.13.66-2.84,1.94-1.63.06-4,.09-2.16,2.73-1.91,2.3.22l2-4.52-2.28,1.59c-1.22-2.29,3.63-2.55,2.2-5.22l-3.34,3.67-.41-.77c-.17,1.43-2,2.71-2.78,3-.2-.37-.72-.79-.15-1.46-4.38,4.08,1.92,4.23-1,8.31A2,2,0,0,1,1926.33,654.73Z"/><path class="cls-2" d="M1918.43,654l.72,3.68-3.05,1.9c.73.79-.46,3.21,1.43,2.66a2.77,2.77,0,0,1,.82-1.36c1.36,1.92-2.49,4.1-.1,5,1.53-2.39,2.2-2.33,2.07-4.87a11.41,11.41,0,0,1,5.08-2.79c.29-.78-.64-1.87-.16-2.75-.13.18-.24.34-.4.53l-2.54-2.41c0,1.08-.83,1.37-1.4,2l0-5.79c-3.24-1.39-4.75,2.81-6.85,3C1917.56,653.54,1914,655,1918.43,654Z"/><path class="cls-2" d="M1925.24,655.51l.06-.07Z"/><path class="cls-2" d="M1722.4,885.71a1.51,1.51,0,0,0,0,1.81l6.91-7c-.87-.43-3.67.75-2.72-1-1.32-.13-2.52,2.3-1.91,3.44l-.48-1.5c-.34,2.87-3.92,1.45-3.63-.33l-.12.14.43,9.32C1722.83,889.32,1720.49,887.72,1722.4,885.71Z"/><path class="cls-2" d="M1577,1025.18c.67-1.12.55-1.46.2-1.6A4.6,4.6,0,0,0,1577,1025.18Z"/><path class="cls-2" d="M1721,892.84l.13,2.91A7.68,7.68,0,0,0,1721,892.84Z"/><path class="cls-2" d="M1707.47,859.92a.86.86,0,0,0-.28-.24l.15,1.4h0C1707.42,860.67,1707.45,860.29,1707.47,859.92Z"/><path class="cls-2" d="M1695.17,930l-.35.56A2.6,2.6,0,0,0,1695.17,930Z"/><path class="cls-2" d="M1717.61,832.43,1716,837c-.28-1.11-1.57.58-1.72-.88-.13.34-1,1.72-.3,1.78l.59-.68c.39,3.66,2.15,3.46,1,7.7,2.88-.46,2.52-2.3,2.48-4.11a8.38,8.38,0,0,1,.53-1.08l-.25-5.4Z"/><path class="cls-2" d="M1608.62,970.8l-.12-.19A.52.52,0,0,0,1608.62,970.8Z"/><path class="cls-2" d="M1608,969.82l.51.79C1608.34,970.11,1608.67,969.17,1608,969.82Z"/><path class="cls-2" d="M1720.22,891a4.8,4.8,0,0,1,.8,1.83l-.11-2.18A5.49,5.49,0,0,1,1720.22,891Z"/><path class="cls-2" d="M1718.16,884.22l2.32-2.88-.08-2C1719.8,880.72,1718.9,882.15,1718.16,884.22Z"/><path class="cls-2" d="M1700.48,927.08c-5.09,5.67-1.06-3.72-4.11-1.83-1.22,1.77-.62,3.43-1.2,4.72,3.31-5.23,3.14,4.32,6.86-.57,1.43,2.67-.89,5.34-2.91,6.23-3.62-.33,0-2.89-1.54-5.21-1.41,2.05-.75,2.11-.39,4-3.18,2.23-3.21,8-7.56,6.89-1.54,2.39-.47,3.21-.56,5.38,1.88,2.35,4-1.79,6.42-.85-.33,0-1-.09-1.19-.48l2.15-1.24c-2.35.87-1.88-2.35-1.18-3.37.58-.67,1.74-2,2.15-1.24l-.5,1.4c1.89-.55,1.16-4.24,3.6-4.37.54.41.27,1.12.49,1.49,0-2.89,1.49-4.2,2.62-7.35l.84,3.34c-.59-4,4-7.23,7.87-8.68-.65-.06-1.44.23-1.52-.5,1.08-2.08,3.71-1.82,4.08,0-.19-3.28,7.34-4.38,7.2-8.74l-.95-20.32a4.43,4.43,0,0,1-.58,1.73c-2.71-1-3-.28-3.15-3.56-.54,2.49,1.51,3.4-.69,5.73,0-1.81-1.91-4.16-4.31-2.21-3.61,7.25-2,16.09-4.43,23.83-1.6-1.24-5.2,3.13-7.47,4.73-.78-2.27.23-4.14,1.42-5.93-1,.84-2.69,2.4-4,3.52Z"/><path class="cls-2" d="M1708.37,909.73a1.83,1.83,0,0,0-.68.15A.93.93,0,0,0,1708.37,909.73Z"/><path class="cls-2" d="M1702.44,919.66a.55.55,0,0,0-.14-.17l-.36.58Z"/><path class="cls-2" d="M1715.75,889.06c-.08-.72,0-1.07,0-1.8a8.26,8.26,0,0,1-.32,1C1715.35,888.73,1715.44,889,1715.75,889.06Z"/><path class="cls-2" d="M1719.33,890.49l.41.76c.2-.08.31-.16.48-.24C1719.94,890.66,1719.64,890.44,1719.33,890.49Z"/><path class="cls-2" d="M1667.05,934.7l-.2.82A.75.75,0,0,0,1667.05,934.7Z"/><path class="cls-2" d="M1692.06,930.63c1.74-2-1.89-2.34.76-5l-.91.64c1-2.8,4.77-5.71,7-8,.58,1.11,2.39-.33,3.43,1.25,1.25-1.85,2.49-3.66,1.93-5.81,1.41-.51,1.68-3.15,3.46-3.8-1.31-.28-.94-4.41-2.94-.49.13-.35-.2-.38-.08-.73-3,.79-1.9,3.43-3.53,5.09-1.76.2.35-2.86-.88-2.25-1.33,2.77-7.4,5.46-4.33,8.28-1.29,1.69-2.14,1.25-3.12,1.15.75,5.5-10.13,7.38-6.11,11.37.71-1,2.2-2.33,2.61-4.45Z"/><path class="cls-2" d="M1712.8,892.4a2.91,2.91,0,0,1-.4.33A3.87,3.87,0,0,0,1712.8,892.4Z"/><path class="cls-2" d="M1748.07,880.52l1.83,3.41c-3.85,5.07-6.2,5.94-10,9.93-.66-.07-.41-.77-.29-1.12-2.44,3-7.1,6.57-7.9,9.76-.9.85-4,2.3-3.93.66a3.18,3.18,0,0,1-1,1.77c-1.07-.82.82-1.36.08-2.17-.45.33-.78.29-.58.68-.15-1.46-3.86-2.54-.75-5.5,3.37,1-1.86,2.35,1.26,4.1,1-1,0-1.81-.24-2.2,1.34-1.22,1.91-.57,2.4,0-.26-1.24,2.4-1.8,1.94-3.63,2.32-2.67,1.69,2,3.29.32l-1.5-3.41,3.17-2.23c3.08-4.77-4.79-3.7-1.68-9.56.69,1.87,4.64,2.24,7.24.68-1.16,1.33-1.88,5.24-4.22,6.11,4.2-.33-2.91,3.35.47,4.39a6.25,6.25,0,0,1,3.85-5.06l-.25.7c1.82-1.28.43-5,3.56-6.19,1-1.14,1.48-.24,1.86.52C1747.2,881.27,1747.53,880,1748.07,880.52Zm-1.81,2.83-1.67,1.17C1745.33,884.6,1745.85,884.05,1746.26,883.35Z"/><path class="cls-2" d="M1898.77,674.16l.63-.23A1,1,0,0,0,1898.77,674.16Z"/><path class="cls-2" d="M1771,799.17l.91-.74A3.21,3.21,0,0,0,1771,799.17Z"/><path class="cls-2" d="M1781.51,772.57l.63-1.78A2.9,2.9,0,0,0,1781.51,772.57Z"/><path class="cls-2" d="M1888.73,683.79l0,0c0,.11,0,.22-.06.32Z"/><path class="cls-2" d="M1824.49,741.34a3.19,3.19,0,0,0,1.21-.13C1825.43,741,1825,741.08,1824.49,741.34Z"/><polygon class="cls-2" points="1781.39 772.9 1781.51 772.87 1781.51 772.57 1781.39 772.9"/><path class="cls-2" d="M1755.7,800.1c-.1.25-.2.47-.29.77A1.48,1.48,0,0,0,1755.7,800.1Z"/><path class="cls-2" d="M1763.81,805.93a2.54,2.54,0,0,0-.26.76Z"/><path class="cls-2" d="M1730.44,829.56l-.76,1.46A2.93,2.93,0,0,0,1730.44,829.56Z"/><path class="cls-2" d="M1759.26,807.24a5.14,5.14,0,0,0,.16.51A.38.38,0,0,0,1759.26,807.24Z"/><polygon class="cls-2" points="1913.16 674.48 1913.1 674.55 1913.35 674.87 1913.16 674.48"/><path class="cls-2" d="M1912.29,668.19l.78-1.17A2.68,2.68,0,0,0,1912.29,668.19Z"/><path class="cls-2" d="M1844.61,729.23c.65.07,1.77-.19,1.85.54C1846.52,728.69,1845.24,727.48,1844.61,729.23Z"/><path class="cls-2" d="M1923.06,695.31a6.35,6.35,0,0,1-.21-1.45C1922.79,694.63,1922.72,695.28,1923.06,695.31Z"/><path class="cls-2" d="M1922.85,693.86a11.25,11.25,0,0,0,.05-1.16A5.55,5.55,0,0,0,1922.85,693.86Z"/><path class="cls-2" d="M1857.45,757.16a.83.83,0,0,0-.69,0C1857.14,757.44,1857.33,757.39,1857.45,757.16Z"/><path class="cls-2" d="M1914.25,666.63c-.4-.76,2.58-6.27-1.29-3-1.69-2,1.45-3.13,2-4.53-1.12.26-.82-1.52-1.68-2-.25.7-.29,1.78-1.2,2.43-1.2-.48-.57-2.23.67-2.84-2.11.17,0-2.89-2.35-2-2.81,4.08-4.6,7.17-4.37,12.25,1.53-2.39,3.19-5.13,5.54-6l.89,2.26c-3.2.42-3.3,2.58-5.24,4.22l4.87-3.17c3.2-.56,2.23,1,1,2.77C1913.46,666.67,1913.88,666.44,1914.25,666.63Z"/><path class="cls-2" d="M1925.34,683.22l.11,0a1.24,1.24,0,0,0,0-.33Z"/><path class="cls-2" d="M1762.47,861.4l.25.94C1762.74,861.78,1762.65,861.51,1762.47,861.4Z"/><path class="cls-2" d="M1915.31,677.94h0S1915.3,678,1915.31,677.94Z"/><path class="cls-2" d="M1771.21,853l.09.18A.44.44,0,0,0,1771.21,853Z"/><path class="cls-2" d="M1739.6,816.52a1,1,0,0,0-.27-.15C1739.24,816.64,1739.4,816.63,1739.6,816.52Z"/><path class="cls-2" d="M1771.07,852.8a.73.73,0,0,1,.14.16A.44.44,0,0,0,1771.07,852.8Z"/><path class="cls-2" d="M1807.22,805.34a4.35,4.35,0,0,0-.87-.19C1806.42,805.37,1806.67,805.47,1807.22,805.34Z"/><path class="cls-2" d="M1796.62,811.22l-.33,0Z"/><path class="cls-2" d="M1835.57,724.05a4.35,4.35,0,0,0-.89,1.05A2.91,2.91,0,0,0,1835.57,724.05Z"/><path class="cls-2" d="M1771.3,853.14a3.37,3.37,0,0,1,.14,1A2.74,2.74,0,0,0,1771.3,853.14Z"/><path class="cls-2" d="M1811.9,784.81l-.08.43a1.55,1.55,0,0,1,.23-.07Z"/><path class="cls-2" d="M1817.38,781.69a3.48,3.48,0,0,0,.22.82c.89-2.19,4.43-4.29,3.09-6.3-.48.56-4.17,2.26-4.69.82-.66,1.49-3.42,1.88-3.72,2.73,2.68-.83,1.6,1.24,1,3-1.57.59-1.14-1.55-2.38-.94l-2.32,2.68,2.4-2,1,2.28.07-.37C1814.91,780,1814.64,786.5,1817.38,781.69Z"/><path class="cls-2" d="M1817.6,782.51a2.33,2.33,0,0,0-.19,1A.91.91,0,0,0,1817.6,782.51Z"/><path class="cls-2" d="M1835.34,770.2a5.33,5.33,0,0,0,.4-.91Z"/><path class="cls-2" d="M1722.51,877.76c.54.41,3.67-.74,2.39-2l-2.32,1.52Z"/><path class="cls-2" d="M1869.25,722.13a4.39,4.39,0,0,0-.75.68,3.43,3.43,0,0,0,.06.34C1868.88,723.18,1869.13,722.48,1869.25,722.13Z"/><path class="cls-2" d="M1816.08,775.78A1.79,1.79,0,0,0,1816,777,1.69,1.69,0,0,0,1816.08,775.78Z"/><path class="cls-2" d="M1872.33,725a4.46,4.46,0,0,1,2.19.56c.63-.61.42-1.7.82-2.57A4.69,4.69,0,0,1,1872.33,725Z"/><path class="cls-2" d="M1875.37,722.88l0,.07S1875.36,722.9,1875.37,722.88Z"/><path class="cls-2" d="M1720.71,878.5c-.09.28-.2.56-.31.83l0-.63-1.85,1.09a3.49,3.49,0,0,1-.42.81.75.75,0,0,0-.09-.53l-.62.33c.1,2.46-1.9,6.31-2,7.91a9.59,9.59,0,0,1-2.59,4.09c.83-.76,1.63-2.07.6-2.47-2.35.87-5.26-.49-6.23,4.12l1.61-1.65-.94,6.42c-2.42.13.47-3.21,0-4.71-1.5,4.21-7.51,2.93-6.46,6.64-1.59-1.23-4.26-3.29-6-1.29,3,.28-.09,2.16,2.74,2.8.16,1.45-2.6,1.56-1.66,2.74l-.4-.77c-5.45.94-3,5.51-3.21,8-3.27,4.39-5.95,5.23-8.84,8.58-1.07-.83-4.53-2.6-5.68-1.25.7,1.86-1.55,5.28-.2,7.21,2.93-1.54.46-3.21,1.43-4.93,2.83.62,1.8,1.61,4.36,1.13-1.91.55-4.68,6.44-7.65,6.16l.25-.71c-3.13,1.16-7.6-2.51-8.74,3.53l-.72,2.72a4.41,4.41,0,0,0-.36-.65c-3,2.62-4.08,0-5.71,4.54.13-.35-.2-.38-.07-.73-2.69.82-2.61,4.46-3.57,6.17-2.18-.56-1.15-1.54-1.63-3-3.64,2.55-4.65,8.25-4.91,11.84L1648,954c.63-1.74.64-4.64-.55-5.11-.83,1.37,0,1.81-1.79,3.09a17.22,17.22,0,0,1-1.14-4.45c-4.68,1.73,2.38,3.84-2.55,3.38-1,1-.35,2.86.6,4l-3.22.43c1.14,1.56-1,3.89-2.33,5.56.4.77,2.63.26,2.68-.82,1,1.17-.14,3.24-1.18,4.23-3.19-2.47-6.24,7-8.36,2.48-3.64,5.45-9.76,12.1-11.6,16.28-1.77.2-3.84,2.17-3.94-.37-3.69,3.64-2.68,8.43-7.1,11.28-.66-.06,1.62-1.67.55-2.49-1.25,3.51-5.53,3.11-8.47,7.54a1.54,1.54,0,0,0,0-1.82c.54.41-.54,2.48-1,3.89-.77.29.39-1-.28-1.12-8.51,5.72-10.11,15-17.34,21.91a4,4,0,0,0,.22-5.41l-2,1.93c.17,1.7-1.33,3.18-1.88,5.13-.5-.21-1.49,0-1.31-1-5.81,2-2.72,9.52-8.49,13.32l2-9.58-2.75.11.85-4.26c-2.56.47-1.51,4.2-3.11,2.95-.08-.72.83-1.36.09-2.16-2,.9-1.08,2.08-1.91,3.45,0-5.78,5.77-11.4,8.13-15.16.26-.71.28,1.11.49,1.49,1.16-1.34,2.81-1.18,3.89-3.25-.24-2.2-1.64-.16-2.55.48-.95-1.17-.5-1.49.21-2.51,1.6,1.23,5.25-4.22,8.08-3.59,4.19-5-4.39-3,.74-6.81l3,.29c1.37-3.86,3.65-8.34,7-10.94l-.57.67c.28,1.11,1.39.86,2,.91,2.93-1.53,3-5.5,6-5.22.84-4.27,3.83-9.78,5.87-13.57,2.91,1.36-2,5.6-1.9,8.15l2.66-2.65c-1.62,1.66-1.46,3.12-1.23,5.32,2.73-1.92,1.63-4.56,3.29-7.29.41.75,1.06.81,2.1-.18l-1.13-1.71c.14.1.36.09.76-.13l3.07-4.78c-1.44.22-2.71-1-3.74,0,1.19.47.49,1.49-.55,2.48,0-1.82-1.77.2-2.51-.59a33.86,33.86,0,0,0,5.34-6.38l1.73.88c2.27-1.6,3.6-4.37,5.29-5.29l.28,1.1c2.73-1.91,4.18-5,7.52-5.81.59-3.56,2-7.4,2.11-10.66-.77-2.59,8.2-3.93,8.18-8.64.34,0-.34,2.87-.5,4.31,1.81-1.29,1-4.62,3.22-3.33-4.09,2.88,1.6,1.24.53,3.31,1.6-1.66,3-3.7,3.18-5.13-2.64,2.64-1.51-3.4-3.42,0a13.26,13.26,0,0,1,5.89-8.86c.74.8,1.4.85,2.64.25l-.36-1.85c1.36-1-.94,3.54,1.79,1.62.51-4.29,8.3-6.1,5.85-10.67,3.22-.42-2.07,4.87,2.37,3.84-.33,2.86-4,3.6-2.78,5.89,1.08-2.06,2,.92,3.09-.07l.67-2.83-.45.32c1.29-4.59,6.75-8.42,10.22-12.43,1.43-4.94,1.07-9.68,5.08-13.28-.09,2.16,4.17-2.15,3.65,2.15,2.69-.84,3.35-3.66,2.62-4.46-1.81,1.28-.79.29-2.47,1.22-.05-1.81,2-3.8,3.48-4-.46.32-.13.35.07.73,2.47-1.22,0-1.81.92-3.53,1.72.88,3.31-2.59,5.21-3.14l-.07-3.62c.23,2.19,2.14-1.25,3.54-.4.41-2.13,0-4.7,2.24-6.3-.16,1.44,2.69-.83,4,.37,4.49-2.11,2.13-8.84,7-10.19.19.38.37,1.83,1.6,1.23.38-1.07,1.79-2.18,2.43-3.09l0,.06v-.07c.31-.44.4-.84.11-1.15.12-2.53-.43-4.45,1.16-8.07-1.61-1.23-3.26,1.51-3.76,2.91l.57,2.23c-2.92-1.36-2,2.71-3.31,2.58-.92-4.07,4.2-7.93,5.37-12.16-3.62-.34-7.51,2.91-10.41,6.26l2.23-.52-1.61,1.66,3.09-.07c-1.82,1.28-2.78,3-4.27,4.31,1.62-1.66,4.21-.34,3,.28-3.21.42-1,2.8-2.49,4.1.91-.64,1.94-1.62,2.1-.16-4.45,1-4.09,2.88-8.41,3.55,2.66,2.06-2.9,3.35-1.35,5.67l1.37-1-1,3.88c-4.19.33.06-4-4.76-1.89-3.44,2.94-.88,5.34-3.22,8a8.18,8.18,0,0,1,2.31-7.38l-1.9.54c-.16-1.46,2.81-4.07,4.3-5.38-.72,3.91,1.58-.58,3.88-.37-1.16-1.55-2.43.14-1.76-2.69a15.19,15.19,0,0,1-4.34,3.57c5.13-3.87-.62-8.74,4.46-11.52-1.21,2.42,2.58,1.33,3.45,1.77a27,27,0,0,0,2.49-4.11l-2.6-1.32c1.46-3.13,6.38.23,7-4.43-.83-1.51-2.73,1.92-2.48,1.22,2.41-4.84,6.85-3,11.54-4.7-.4-.77-1.67-2-1.58-4.13.82,1.53,2.25,1.3,1.84,3.42,1.57-.57,2-2.7,2.48-4.11-2.93,1.54-.76-2.6-1-3.71,1.37-1,.82,1.52.44,2.57,1.25-.61,4.07,0,2.86-2.26,1.26,1.2.63,5.85-.78,7.89l1.36-1c-.17,1.43-.5,1.4-1.85,2.35a3.51,3.51,0,0,1,3.64,2.16c-.33,0-.21-.38-.53-.41-1.24.61-1.62,1.65-.75,2.1.82,2.5,2.33-.25,3.78,0l1.1-1.75-.48-10.15c1.45-2.68,3.66-2.32,6-3.06l-1-1.85c1.94-1.64,4.09-2.88,4.74.08-.54-.41-.67-.06-1.13.25a1.4,1.4,0,0,1,.19.7l.16.34c1.46-2.38,2.37-3.87,2.43-4-1.21,5.32,2.41,2.75,4.38,5.83l2.49-4.11c-2.8,1.19-1.27-1.2-.9-2.25,1.61,1.23,2.65-2.66,4-3.61l.2.38c1.57-.57,3.31-2.58,4.26-4.3-.53-.41-1.13-4.45-1.7-6.67-2.83,1.74-2-.18-3.1-.89.32-.15.77-.56.64-.79-.08-.73-1-.1-1.52-.5-1.78,3.09-4.1,5.77-3.12,8.75,1.64.15.42-2.13,1.86-2.36.12,2.54-1.71,3.82-3.77,5.8l-1.86-.53-1.39,2.67c.22-1.48-1.53-2.22.37-4.58-1.39-.86-1.86,2.36-3.55,3.29l.9,2.25c-.62-1.14-3.59,1.48-2.8-1.71l2-4.52-2-.19,2.44-3,.17,1.46c3.32-5.47,4.43,1.86,7-4.41-.52-3.3.77-5,4-7.22-1.54,2.38,1.14,1.55,1.51,3.39,2.8-1.19,1.9-3.44,2.2-5.23,1.52.51,2.7,1,.77,2.61,1.88,2.35,2-2.71,4.32-.68,5.88-6-2.25-11.79,7.4-16l.62,1.14c3.31-5.48,6.9-7,10.29-11.7l5.44-1c-.37,1.06-.64,4.65,1.33,4.84-3.81-.72-4.68,1.73-7.57,2.18.41.76,1.52.51,2.18.57-1,1-2.56.48-3.51,2.21.53.4,2.55-.49,1.72.88l-3.21.42c-1.78,3.09,2.12,4.54-1.39,6.75-.7-1.78-1.41-4.66-.59-6.06-1.58,1,1-2.49-.94-2.05,0,3.72-2.42,3.17-3.78,6.82,0-.56-.24-1,.27-1.72l-4.43,2.84c2,.18-1.82,4.18.11,5.44,4.54-3.19,2.44-3,7.77-6.51-.9,1.61-.89,4.84-.16,7.09a.48.48,0,0,0-.38.1c.9,2.26,2,2,4.75,4.78.07-4,3-3.69,4.29-7.19-1.06-2-3.31-.57-4.11,1l1.11-3.09.28,1.11,5.83-4.78c-.93,1.08-.4,2.3-.26,3.49a7.34,7.34,0,0,1,3-1.18c-1.59-1.3-2.51-2.42-1.81-3.05,3.77-3.07,7-3.66,9.88-3.26l.3-.5c-2.06-.91-.22-5.09-.67-7.66,1.48,1.59,2.68-.83,4.45-1-1.22-2.28-4.34-4-7-4.27-.72,3.92.32,2.92,1.49,6.29l-2.2,5.22-.57-2.23c-2.47,1.23-2.4,4.85-4.09,2.89-.23-2.2,2.13-3.07,1.89-5.26l-1.9.55c.38-3.94,2.84.63,4.21-3.23-2.51-.59.12-.35.21-2.5-2-.19-4.17,5-6,1.6.22-2.51,7.67-1.46,6.86-5.88l.21.39c3-2.3,2.43-4.74,2.49-6.68,2-.27,2.35-3,3.48-4.34l.74.8,1.41-2.05c.57,2.22-2.07,2-3.35,3.66l1.6,1.25c-3.4,0-2,3.72-2.09,6.27.71-3.16,5.82-5.08,3.49-8.32l2.64.25,0-1.09c2,.2,2.74,2.8,1.33,4.84-.65-.06-1-.09-1.19-.48-.17,1.44.2,3.28-2.08,4.88l.29-1.79c-2.52,2.3-4.17,5-3.6,7.27a76.78,76.78,0,0,0,10.86-9.49c-2.24-4.18-2.89-7.14-5.38-10.62,1.65-2.74,4.23-6.12,7.23-6.93l.41.77a4.66,4.66,0,0,0,2.31-2.69c1.77-.19.91,2.26,2,2l2.15-4.14c1.15,1.55-1.49,4.2-2.65,5.54.12-.35.37-1.05,0-1.08-2,.9-2.46,5.92-5,4.59-.37,1,0-2.89-2.5-.59-2.36.87-1.13,3.15-.72,3.91.74.8,3.59-1.46,3.62.35,1.16-1.35.68-2.84,3-3.7-1.16,1.33-1.31,4.58-3.15,4-1,3.89,2.89,7.15,4.25,6.19-1.4-.85,3.12-5.87-1.58-4.13,0-2.89,2.65-5.54,3.65-8.34l.21.37,2-2.71c.07.74-.3,1.79.44,2.58l1.22-5.31c-.46,3.21,2.1-.17,3.54-.39-.82-1.53-.4-3.66-2.29-3.11-2.23.51-.17,1.43-1.34,2.76l-.06-3.61.33,0-.44-2.58c2.52-2.3,2.45,4.57,4.07,0l-2.46-1.67c3.89-3.25,10.81-5.5,12.39-9,.47,1.87,2.05,4.07,4.12,4.24-1.45.73-3.57,3-4.94,4.73-.67-.06-.47-4.39,1.67-5.63-4.19-2.57-2.25,6.3-5.86,3.06-5.53,3.11.05,6.52-5.63,8.16,1.47,1.59-.3,1.79.85,3.34,3.57,1.42,4.83-5,8.09-6.47a2.24,2.24,0,0,0-.17,1.42,6.06,6.06,0,0,0,3.15-4l-.33,0c.59-3.56,2.43-.13,4.32-.68.26-.7,2.39-2,1-2.8l3.67-.75-1.81-1.61c1.15-1.34,2.55-.48,2.65-2.65l-1.47-1.59-3.64,2.56c1.08-2.07-1-1.9.39-4-.27,3.6,2.22-.51,3.82.73l.42-2.13.08.73c1.78-.21.62-1.75,2-2.71-2.23.51-4.2.33-4.87,3.16a22.07,22.07,0,0,1,2.57-6.27c.71-2,2.8-1.74,4.23-2.81-1.8,3,5.46,3.81-.46,7.5-.2-.38.26-.7.59-.67-2.59-1.32-2.78,3-3.08,4.78,1.39.86.58,2.23,3,1-1.33-.12-.94-4.07,1.75-4.89l2.09,2.72,2.84-2.27-.12.35c2.51.6,2.44-3,5.12-3.86.42-2.14,6-6.32,1.39-6.75,3.09-.07,2.57-3.37,4-5.42l-3.14,1.16c.84-4.26,1.21-2.42.53-7.2.86.46,1.85.55,2.13,1.66,3.56-3.28,9.14-7.47,9.18-11.45,2.53-2.29,5.73.17,8-4.31.37-1.05-2.8-1.7.13-3.25.33,0-.38,3.94,1.93,1.27-.06-3.63,5.21-3.13,5.92-7.05,1.89-.54,3.76-2.91,4.78-1-2.27,1.59-4.71,4.63-4.43,5.75-.61-1.16-2.23.51-1.48-1.6-4,1.81-1,2.8-4.38,4.66.4.77,3,.28,3-.81,2,2-4.22,6.12.5,6.21,3-2.62-.33-7.63,4.2-7.94.23,2.19-2.32,2.68-1.46,6l2.8-1.17v-2.9l.21.38c5.36-1.67,1.22-5.31,3.37-9.46-3.21.43-3-3.9-5.25-3.38,1.86-2.36,3.68-3.63,5.68-1.64-2.32,5.57,1.89,2.35.22,8,1.31.13,2,3.8,4.45,1.86,1-3.87-2.4-.94-.61-4a1,1,0,0,1,.86.45c.09-2.16,1.69-.93,1.91-3.44l.07.73c2.89-.45.47-3.21,3.24-3.32-2.06-.92-.25-2.18-.27-4-2,.9-5-.45-7.72,2.54.82,1.53,1.68,2,1.06,3.72l1.73-2a13.77,13.77,0,0,0-.35,1.81l-2.42,1.18c1.45-3.11-.84-3.33-1.09-5.52,2.61-1.57,1.41-2,3.11-3,1.58,1.86,7-1.06,10.49-2.34-.44.3-.88.83-1.19,1-.67,2.83,2.64.24,3.18.65l.42-2.13c-.12.36-.06,1.09.73.8,1.41-2-.39-3.66,1-5.69,1.08.82,1,3.71,2.62,3.14,1.2.47,4.57,1.51,6-1.61-.2-.53.19-1.32.72-2.17a1.26,1.26,0,0,0-.1.42l2.55-.48c.32,2.92-3.38,1.85-3.07,4.77l1.43,1.65a6.27,6.27,0,0,0-1.57,4.49c1.81-1.28,1.73-2,3.14-4,1.21.73.71,2.67.65,3l-.62-1.14c-3.33.78-1.62,4.55-4.47,6.82-.46.32-.33,0-.54-.41-.59,3.56-4.67,3.54-4.73,7.52l-.15-1.47c-.72,2-1.9,6.22-3.14,10.36l.58.62c.66.07-.38,1-1.16,1.35v0c-.62,2.08-1.25,4-1.81,5.6a3.31,3.31,0,0,0,2-.5c-.28-1.12,2.77-3,.83-4.26,2.11-.17,2.57-3.38,4-3.61-2.55.49-.44-2.57-1.05-3.72,1.52.5,2.19-2.32,3.34-.77.66.06-1.64-.15-1.48,1.31-.34,2.86,4-1.8,3.24,1.39,1.58-3.48,5.33-6.38,6.71-10.23l-2,.89c1.37-.95,3.82-4,4.67-3.53-.7,1-1.73,2-2.56,3.37,1.47,1.59,2.64-2.65,3.71-1.82l.68-5.73-1.49,1.31c0-1.81,4-3.61,6.41-5.56.84,3.35-3.23,3.32-4.69,6.44-.87,2.45,3,1,2,3.08a2,2,0,0,0,1.85-2l1-.24c.49,3.31-3.09,6-3.55,9.74a2.28,2.28,0,0,0-.24-1,9.13,9.13,0,0,0-5,4.59c1.43-.22,1.35-1,1.61-1.65.53.41-.76,2.09-.8,3.17,2-.89,1.39.86,2.63.25-.5,1.41-1.41,2-2.77,3-1.31-.13-.49-1.49-1.55-2.32-.63,1.76-3.43,0-4.09,2.88,2.72-1.92,1.43,2.66,1.26,4.1l.45-.33q.54,2.77-1.73,2c.49-1.4,1.73-2,.34-2.86a7.1,7.1,0,0,0-1.54,2.39l-.16-1.46-2.9,3.35a34.14,34.14,0,0,0,2.08,5.61c-1.64-.15-1.94,1.64-2.31,2.69l-.08-.74c-2.23.52-4.59,4.29-4,5.42-1.77.2,1.41-12.53-4.76-4.78-2.64,2.64,1.14,4.45.59,6.92a.77.77,0,0,0-.53-.4c-1.36,1-.42,2.13-.92,3.53,1.12-.26,2.14-1.25,2.07-2,.81,1.52-2.53,2.3-2.5,4.11-.64-3-2.93,1.54-3-.28-3.47,1.13-4.51,5-4.4,7.55-3.82-.72-2.45,3-6,4.51.46-.33.83-1.37,1.62-1.67,0-2.88-3.38,1.86-2.47-1.67-.24.7.73.8,1,.08.7-1,.87-2.44,0-2.88l-3.35.78.38-1.07-4.89,1.36c.2.37.85.44,1.18.47-4.42,2.85-7.61,8-11,10.91,3.44,4.67-6.14,9.56-6.24,14.62-.47-1.85-2.13-4.29-3.4-4.71.4-.74,0-3.56,1.59-4.51.86.45,3.21-.42,2.91,1.36,3.15-4-2.26-1.3-2.69-3.87-3.61,4.37-3.59,9.08-5.16,12.55l-.54-.42-1,2.8c1.83-1.28,4,1.11,1.24,2.29l.13-.35c-2.11.16-3.36,3.67-5.3,5.3l.11,2.53c-1.94,1.63-4.48-.77-6.54-1.68-3,2.61-2.58,6.26-3.37,9.45-2-.19-6.44,3.73-5.51.21-1.59,3.47,4.68,8.76-2.86,9.86l.1-2.17c-3.94,4.35-7.8,12.31-10.8,13.11-2.2-5.27-9,1.33-13.37-1.61,1,.63-.24,2.46,0,3.14-.77-.09-1.75.05-1.6,1.41,2.35-.87,2.65,5,4.27.39.94,4.08.88,8-2.68,11.34l-1.47-1.59,3.18-2.23c-1.4-.86.08-2.16.14-3.25-5.91,4.15-2.91-4.25-7.87,1.08.49,1.49.4.76-.55,2.48.58-.67-.36-1.84-1.4-.86l.25,2.2c-4.35-.77,1.33-4.63-2-4.9.8-3.19,3.61-7.26,1-8.58-4,2.53.72,6.58-3.57,9.07l-1.19-.47c-.63,1.76.51,3.3.67,4.77-.53-.42-1.19-.47-2.09.15-.07,4-1,5.71-.76,9.71,3.37-6.55,5.74-2.72,9.43-9.25-.16,1.44-3.31,5.49-1.43,7.83l-1.48-1.59c-.87,2.46-1.75,4.9-4.35,6.47l.42-2.13c-1.71,3.83-6.92,2.25-6.57,7a4.25,4.25,0,0,0,1.73-2c-.74,2.1-2.69,3.73-4.49,5l-.7,5.73c-.73-.79-2.81,1.18-3-1-3.47,1.13-2.28,4.5-3.24,6.21-4,.71,1.33-2.77-.55-5.12-4,2.53-6.78,6.6-7.25,9.81,1-.35,1.56-.4,1.89,0-.58-.38-1.76,1.05-2.51,1.76l.48,1.5c-1.88.54-2.3-.22-2-2-1.36,1-.85,4.27-3.48,4,.8-3.18,4.38-4.65,4.67-6.43-3.18,5.12-7.2,1.12-11.22,7.63-.54-.41-.57-2.23-1.6-1.23-2,2.7,1.43,2.66,1.79,4.5,1.2-2.42,2.65-2.65,5-2.43l.32,1.29c-.49-.35-1.65.76-2.39.69l1.35,1.94c-1.68-2-4.89-1.55-5.64.56,2.76-.11,2.31.2,4.77,1.9-.06,4-4.2.31-4.39,4.64-.41-.75,1.13-3.15-1-1.9-1.49,1.32.11,2.55-.38,3.94-.45-2.57-1.84-3.43-2.48-6.38,2.31-2.68,1-1,2.81-4.08l-3.34.77c1.87-2.36-.19-3.27-.59-4-5.16,2-.44,5-3.17,6.94-.08,2.16,2.4-1.95,1.73.89-2.4,1.94.49,1.48-1.3,4.57l-.28-1.1c-1.65-.16-1.28,1.69-2,2.7-.5,1.4,6.33,4.22,2.51,8.2a3.14,3.14,0,0,0-.6-1.13L1739.19,864a98.1,98.1,0,0,1-14.29,11.85c-3.57-1.42,1.23-5.31-.17-6.15l2.61-1.57c.93,1.17-4.07,4.68-.32,4.68,2.94-4.44,5.83-4.89,7.17-10.56-3.58-1.42-4.18,5-8.38,5.37a6,6,0,0,0,2.08-3l-7.92,5.78.06,1.15a32,32,0,0,1,3.51-2.32c-2.4,1.94-2.86,5.15-1.19,7.13l.46-.32-.23,1.35Zm-141.63,139.83a2.88,2.88,0,0,0-.32-1C1578.94,1017.73,1579.2,1017.81,1579.08,1018.33ZM1757.26,830c-3.17,2.61-6.59,5-9.6,7.58,8.63-1.39,14.89-2.17,6.41,6.11l-.29.81a14.52,14.52,0,0,0,5-4.51c.17-2.71.14-12.05-.32-12.42-1.52-.51-1.17,1.34-2.4,2Zm8.09,4c2.05-1.24.88-1.66.42-2.64l-1.46,2A1,1,0,0,1,1765.35,834Zm-.4-3.26a.88.88,0,0,1-.57.27ZM1732,861.63l.12-.21-1.35,1A2.58,2.58,0,0,0,1732,861.63Zm5.09-1.55-.92-1.71-1.26,1A3.13,3.13,0,0,0,1737.11,860.08Zm15.07-6.32c-.91-2.26,1.29-4.59-.39-6.56-.32-.61-1-.32-1.66.06l-2.06,1.75a1.78,1.78,0,0,1,.36,1.13c.9-.43,1.79-.42,2.64,1-4.15-.74.2,3.28-2.28,4.5C1749.48,857.48,1752.13,854.83,1752.18,853.76ZM1890.1,707.27a14.72,14.72,0,0,0,1.57.6l-.41,2.2c-2.73,1.92-7.22,1.14-7.06,5.49-1.55.41-3.27-.27-4.76-.76a8.43,8.43,0,0,1,1.62-1C1883.66,704.66,1887.61,714.27,1890.1,707.27Zm-30,23.41a1.06,1.06,0,0,0-.09-.74c-1.87,8.54-5.19,13.78-8.13,16.44,1.87.79,5.41-.69,7.15-1.32l.45,2.57-1.84-.54-.48,3.21c1.53.51,2.81-1.18,4.58-1.38-.2-.38,1.22-5.31,1.18-7.13l-3.58,1.48c1.11-.26,4.13-4,5.08-5.68-.73-.78-4.2.33-2.85,2.27-1.39-.85,1.25-3.51-1.63-3.05.8-3.18,5-5.32,7-6.22l2.13,1.65c2.35-.86-1.18-3.37,1.83-4.17-2,2.71,2.46,1.68.73,3.69,1.31.12,2,2,3.74,0-.93-4.06,3.54-.39,2.82-4.07,1.76-.2.44,2.56,2.72,1,.91-3.53-.15-4.35-1.84-6.32-2.59,1.56,0,4.71-2.12,5.95l.28-6.49a2.23,2.23,0,0,0-1.84,1.1,4.77,4.77,0,0,0,.48-3c-.07-.64-.12-1.2-.14-1.71-1.94,1.89-3.68,3.55-4.76,3.07l-.62-1.15c-1.49-.14-2,1.6-1.83,2.75-1.62,1.81-2.11,4.75-3.63,4l-.15-1.46A41.56,41.56,0,0,1,1860.09,730.68Zm-71.33,66.84c4.51,2,8.78,3.44,14.19-3.07l-.24.7c5-1,3.19-8.54,9.11-9.91-.56,3-.58,2.78.24,7.54l1-2.82c1.23,2.3,2.23-.51,3.71-1.82l.86,3.34c-1.44.23-3.84,2.17-3.3,2.59.24-.71-5.52.2-6.73,2.62,1.61,1.24,4.88-3.16,5.48.88.53-2.48,2.14-1.25,3.22-3.32-.55,2.48,1.56,2.31,1.46,4.48l2.11-3.07c.54.41-2.73,4.81,1.14,4.46.3-1.79,4-3.6,2.53-5.19l.53.41c2.28-1.6-1.3-3,2-4.52a1.42,1.42,0,0,0-2.42.13c-.39,1,.55,2.22-.73,3.92-1.86-.54,2-1.64-1.1-2.64-1.52-.5-3.07,4.78-4.24,1.42l2.27-1.61c-1.49-1.58,0-2.89-1.26-4.09.62-1.74,3.46-1.13,3.35-3.67-.48-1.49-3.2-2.47-.39-3.66,3.83.72,8-4.31,9.41-6.36l.54-2.48c-1.07-.81-2.77,3-3,.81l2-2.71.41.77c.91-.65,1.08-2.08,1.46-3.12.37,1.83-1.78,3.08.15,4.35,1.42-.79,2.18-.36,2.89-1.68-.11.33-.14.68.11.87,2.93-1.53.39-3.94.43-5,.19-4.32-4.19.33-5.54-1.61l5.72-7.42c0,1.08-.11,2.16.76,2.6,2.35-.86,1.27,1.21,3.46-1.12-2.33-2,1.5-4.2,1.85-7.06,1.64.15,2,.18.36,1.83,1.6,1.24,3.25-1.49,4.17-2.14.09-.8.66-1.77.84-2.58-1.36-.06-2-1.22-1.15-3.24l-.21-.38c-2.71,1.92-7.87,4-7.89,6.87l-.28-1.12c-3.92,1.45-3.32,8.38-7.24,6.93-.94-1.18-.78.29-2.25-1.29l-.8,3.17-.28-1.11-3,3.7-.19-.38c-.22,3-.35,5.37-.44,7.29.66.67,1,.78.93,1.8a2.33,2.33,0,0,1-1,1.59h0c-1,.63-2.52.22-3.93.84l3-3.28a3.67,3.67,0,0,0-4.64-1.58c.59-.66,0-1.81-.94-1.17.21.38-1.34,2.77.32,2.93-2.57,3.37-10.36,5.18-12.74,11.83,2-4.53-4.12,1.06-1-3-4.31.69-.38,3.95-3.23,6.21-.87-.43,1.48-1.3.79-3.18-5,3.51-4.28,10.1-9,13.65l-1.58-1.25Zm-6.41,9.88-1.94,2.89.28-.19-1.25,3.51c2-.9,4.54-.3,3.2,2.46-.41-.76-1.72-.88-1.35-1.93-2.22.51-6.06,2.69-3.14,4.05.63-4.65,3.33,2.12,3.91-1.45.27,2.5-1.45,3-1.89,4.64-.06-2.26-2.89-2.39-5.09-1.31-.37,1-2.64,2.65-3.26,4.4,1.72.89,1.43,2.67,3.7,1.07a4.52,4.52,0,0,1-3.11,3c.27-.71,1-1.72.44-2.14-2-.41-2.88.57-3.9.57l-1,1.42a1.74,1.74,0,0,1,.74.16l-.21,2.51c1.2-2.42,1.44-.23,2.18.56-1.48-1.58-1.37,1-1.94,1.63l3,.28c.15,1.46-3.47,1.12-1.54,2.39,3.51-2.21,4.34-3.58,6.45-6.63l-2.3-.22c2-3.79,4,.37,7.17-2.95.22-2.5,4.85-5,2.63-7.35.29,1.11,4.08,0,4.17-2.14-.85-3.34,2.62-7.36.53-7.19-1,1-1.26,3.5-3.44,2.94l1.54-2.4-2.43.14C1785.51,809.84,1784.33,808.78,1782.35,807.4Zm-56.93,30.87-.1.05.09-.08Z"/><path class="cls-2" d="M1914.51,673.53c0-1.08,1.53-2.39.14-3.24C1915.91,671.49,1912.33,673,1914.51,673.53Z"/><path class="cls-2" d="M1917.39,673.08c-.2-.39-.73-.8-.15-1.47l-1.42,2Z"/><path class="cls-2" d="M1927.56,679.81c0-1.81,0-2.89,1.51-4.2,3.53,2.5-1.45,3.13.72,6.58,2.85-2.27,1-5.69,2.87-8.05C1930.36,673.92,1925.36,677.44,1927.56,679.81Z"/><polygon class="cls-2" points="1930.22 684.77 1930.98 682.67 1930.66 682.63 1929.91 684.73 1930.22 684.77"/><path class="cls-2" d="M1873.2,689.2c-1.07-.82-1,1-1.29,1.7C1872.36,690.57,1873.15,690.28,1873.2,689.2Z"/><path class="cls-2" d="M1591.71,966.85l-10,11.73C1584.62,975.23,1587.4,972.24,1591.71,966.85Z"/><path class="cls-2" d="M1843.2,731.27c2-3.79,1.72-6.71,4.28-10.09-5.81,2-2.22,8.12-7.44,9.43Z"/><path class="cls-2" d="M1836.74,722.71c2.25,1.3-.19,4.32,1.54,5.21,1.53-2.39-.77-2.61,1.17-4.23Z"/><polygon class="cls-2" points="1879.23 738.98 1879.26 740.79 1879.64 739.74 1879.23 738.98"/><polygon class="cls-2" points="1824.98 737.52 1824.9 736.8 1822.88 737.7 1824.98 737.52"/><path class="cls-2" d="M1824.82,736.07l.09.73Z"/><polygon class="cls-2" points="1881.88 743.93 1883.58 743 1883.42 741.54 1881.88 743.93"/><path class="cls-2" d="M1860.76,745.93l.62-1.74C1861.25,744.53,1858.91,745.4,1860.76,745.93Z"/><polygon class="cls-2" points="1815.28 745.66 1814.52 747.77 1814.85 747.8 1815.59 745.7 1815.28 745.66"/><path class="cls-2" d="M1856.41,760c2.18.56-2,2.71.9,2.25C1858.59,760.57,1857.27,760.46,1856.41,760Z"/><path class="cls-2" d="M1829.89,767.92a1.3,1.3,0,0,0-.4.79A5.88,5.88,0,0,0,1829.89,767.92Z"/><path class="cls-2" d="M1829.89,767.92c.62-.63,1.77-.72,1.8-1.54C1830.29,766.53,1830.24,767,1829.89,767.92Z"/><path class="cls-2" d="M1823,775.34l.67-.46c.09,1.25.27.88.25-.18.55-.64.08-1-.14-1.41l-.16-.9v1C1822.72,774.29,1822.22,774.92,1823,775.34Z"/><path class="cls-2" d="M1773.55,778.68c2.59-1.57,3.38-1.86,4.32-.68,2.32-1.64.2-3.16,1-4.78C1776.8,775.66,1775.85,775.63,1773.55,778.68Z"/><path class="cls-2" d="M1778.84,773.22l.7-.86A2.62,2.62,0,0,0,1778.84,773.22Z"/><polygon class="cls-2" points="1842.95 778.65 1843.27 781.57 1843.52 780.87 1842.95 778.65"/><path class="cls-2" d="M1769.91,781.23c.46-.32,1-1,1.7-.92C1770.66,779.13,1769.46,781.55,1769.91,781.23Z"/><path class="cls-2" d="M1798.67,794.05c.86.44,1.82-1.28,2.61-1.57C1800.36,793.12,1797.78,791.79,1798.67,794.05Z"/><path class="cls-2" d="M1768.27,791.57a1.88,1.88,0,0,1,2.37.95C1770.69,791.43,1769.59,788.8,1768.27,791.57Z"/><polygon class="cls-2" points="1794.66 797.66 1795.32 797.72 1796.07 795.61 1794.66 797.66"/><path class="cls-2" d="M1815.36,808.28c.35-2.87-5.6-.52-3.89-4.35-4.89,2.22,2.06,1.52-.78,3.94C1812.66,806.76,1815,807.61,1815.36,808.28Z"/><path class="cls-2" d="M1810.69,807.87a3.43,3.43,0,0,0-.84.62A9.74,9.74,0,0,0,1810.69,807.87Z"/><path class="cls-2" d="M1780.05,822.35a3.17,3.17,0,0,0,.12-1A3.22,3.22,0,0,0,1780.05,822.35Z"/><path class="cls-2" d="M1803.3,817.29l.52-4.31c-.35,2.87-4.48,6.82-2.35,8.47a5.07,5.07,0,0,0,2.61-4.46Z"/><path class="cls-2" d="M1741.45,810.42l.3-1.79-1.52,1.08C1740.89,809.62,1741.59,811.68,1741.45,810.42Z"/><path class="cls-2" d="M1739.94,809.92l.29-.21A.37.37,0,0,0,1739.94,809.92Z"/><path class="cls-2" d="M1783.71,816.9a4.7,4.7,0,0,0,1.86-2.36C1784.92,814.48,1782.64,816.07,1783.71,816.9Z"/><polygon class="cls-2" points="1736.86 820.47 1738.25 818.43 1736.51 820.44 1736.86 820.47"/><polygon class="cls-2" points="1725.62 825.22 1724.97 825.16 1724.22 827.26 1724.88 827.31 1725.62 825.22"/><path class="cls-2" d="M1773.18,852.1c1.37-1,.59-3.57-.07-3.63l-2.19,2.33c2,.92.58-.67,2.27-1.6Z"/><path class="cls-2" d="M1668.79,887.21c-.48-1.5,2.56-3.38,3.63-2.56.08.74-.87,2.46.57,2.23l-.47-4.39c4.11-1.06,1.21,5.18.78,7.32,3-2.32,2.16-4.71,5-7.5a5,5,0,0,1-3.14.43c-1.81-1.62,1.58-3.47,3.32-5.48-1.94.45-1.87-.87-1.67-2.41a.86.86,0,0,0,.07-.6l.06-.54-.23.23a1.89,1.89,0,0,0-.94-.55c-1.07,2.07-3.71,1.83-4.75,2.81,3.79,1.8-2.81,4.08-3.23,6.21l-1.2,1.74-.54.55c-.42-.19-.64-.73-.36-2.12-.15,1.25-2.68,3.38-1.57,4.06l-5.3,5.35a2.15,2.15,0,0,1-.91,0,.69.69,0,0,0,.27.66l-23.09,23.28c1.36-.92,3-1.26,4.48-2.13.07,3.62,2.28-1.59,3.5.68a3.44,3.44,0,0,1-2.65,2.66c.62,1.14,2.39.94,3.33,2.11,4-1.79.28-6.49,3.79-8.69.94,1.18,1,3,2.71,1l-.25.7c1.82-4.17,4.73.08,3.73-4.72l1.47,1.59c.21-2.51,2.86-5.16,4.15-6.85l.2.38c2.45-5.92,2-2.71,6-8.13l-.4,4c2.36-.88.8-3.19,2.16-4.14.22.37,1.6,1.23.78,2.6l3-8.41C1671.26,886,1669.65,887.65,1668.79,887.21Z"/><path class="cls-2" d="M1678.29,882.31a3.72,3.72,0,0,0,1.11-1A11.34,11.34,0,0,0,1678.29,882.31Z"/><path class="cls-2" d="M1633.46,917.56l1.62-1.64A5.51,5.51,0,0,0,1633.46,917.56Z"/><path class="cls-2" d="M1683.15,870.82c-1.78.19-.36-1.85-.77-2.61l-3.52,3.56c.6.57.91,1.58,1.51,2.05Z"/><path class="cls-2" d="M1676.72,871.67a3.72,3.72,0,0,1,.21,2l1.93-1.94C1678.4,871.33,1677.78,871.15,1676.72,871.67Z"/><polygon class="cls-2" points="1708.44 902.85 1707.86 903.53 1707.37 904.93 1708.44 902.85"/><path class="cls-2" d="M1696,910c1.64.16,2.39-1.94,2.64-2.64C1697.05,909,1697.43,908,1696,910Z"/><polygon class="cls-2" points="1707.6 917.61 1706.52 919.68 1706.85 919.72 1707.6 917.61"/><path class="cls-2" d="M1627.38,935.6l-.68.87A3.14,3.14,0,0,0,1627.38,935.6Z"/><path class="cls-2" d="M1639.5,920.65c-5.49,2,1-3.88-2.33-4.91l-1.33,2.77-.41-.77-2.31,2.68c1.52.51,2,.19,2.91,1.36-3.75,2.91-2.31-.21-6.09.88l-3.54,3.91,0-.62a.88.88,0,0,0-.23.88L1614.21,940c-1.45,3.13,3.17.66,3,3.9,2.64-2.64,7.72-5.43,5.84-7.77.2.38.6,1.14,1.39.85l-.2-3.27-2,.9c-.18-3.27,5.19-7.84,7.17-7.66-2.25,3.42,1.25,4.1-3.83,6.88.71.36,2.37.59,1.78,1.77C1631.4,930.38,1636.5,927.23,1639.5,920.65Z"/><path class="cls-2" d="M1594.08,967.8l-.15-.23C1593.94,967.75,1594,967.86,1594.08,967.8Z"/><path class="cls-2" d="M1595.9,966.52l.18-4.32-3.35,3.66,1.2,1.71c-.06-.68.44-2.64,1.48-2.55Z"/><path class="cls-2" d="M1597.46,958.34c-1.2,2.42.6,4,2.37,3.84-.88,2.45-2.71-1-2.06,2,1.27,1.2,2.6-1.57,2.85-2.26Z"/><polygon class="cls-2" points="1611.76 945.93 1611.96 947.15 1613.4 946.08 1611.76 945.93"/><path class="cls-2" d="M1612,947.15l-1.45,1.05a6.36,6.36,0,0,0,1.78,1Z"/><path class="cls-2" d="M1606.75,951a14.22,14.22,0,0,0-2.1,1.54Z"/><path class="cls-2" d="M1608.61,950l-.27-.18-1.59,1.17C1607.39,950.58,1608,950.27,1608.61,950Z"/><path class="cls-2" d="M1610.51,948.2c-1.39-1-2.88-2-4.36.1l2.19,1.49Z"/><polygon class="cls-2" points="1694.3 927.22 1693.55 929.32 1693.88 929.36 1694.63 927.26 1694.3 927.22"/><path class="cls-2" d="M1685,934.31a7.37,7.37,0,0,0-.21,1.52A2.19,2.19,0,0,0,1685,934.31Z"/><path class="cls-2" d="M1687,948.61c-2.88.46.73-3.9-2.91-1.34-1.39-.86-1.38-3.76.64-4.66.94,1.18-.75,2.1,1.23,2.29-.25-2.19,1-1.73-1-3,.65-2.62-.3-3.94-.22-6.08-1.28,2.67-7.06,5.16-7.54,9.7.53,3.3,4,5.09,6.72,7.87C1684.79,953.84,1688.68,950.59,1687,948.61Z"/><path class="cls-2" d="M1692.39,948.76a2.75,2.75,0,0,0,1.29-1.69C1692.61,946.25,1693,948.09,1692.39,948.76Z"/><path class="cls-2" d="M1653.77,945.62c.24.54-.68,2.43.3,2.81l1.64-2.62C1655.15,946.25,1654.49,945.94,1653.77,945.62Z"/><path class="cls-2" d="M1656.43,944.67l-.72,1.14A2.35,2.35,0,0,0,1656.43,944.67Z"/><path class="cls-2" d="M1653.42,945.48l.35.14A.27.27,0,0,0,1653.42,945.48Z"/><path class="cls-2" d="M1600.88,955.41c-.73-.79-1.22.61-1.48,1.31C1599.86,956.39,1600.65,956.1,1600.88,955.41Z"/><path class="cls-2" d="M1568.08,994l-1.45.22A1.8,1.8,0,0,0,1568.08,994Z"/><path class="cls-2" d="M1575.79,1027.6a1.43,1.43,0,0,1,.22.56A1.13,1.13,0,0,0,1575.79,1027.6Z"/><path class="cls-2" d="M1576,1028.16c0,1.2-2.7,2-2.38,3.57l-.21-.37-.61,1.74C1573.83,1031.92,1576.28,1029.72,1576,1028.16Z"/><path class="cls-13" d="M1658.92,1165.54a23.18,23.18,0,0,0-32.78,0l-14.84,14.86c19.16,15.62,32.3,35.52,30.23,64.79-2.94,41.58-28.19,83.33-54.45,114.37-54.58,64.51-304.16,272.58-310.28,280.37l24,23.93a23.18,23.18,0,0,0,32.79,0l395.32-395.68a23.19,23.19,0,0,0,0-32.78Z"/><path class="cls-14" d="M1580.83,1265c-20.51-22-129.24,100.13-179.49,151.43s-162.73,153.86-139.83,176.43,172.65-136.44,209.57-176.43S1600.31,1285.86,1580.83,1265Z"/></g></g></svg>